<svg width="12" height="12" viewBox="0 0 12 12" fill="none" xmlns="http://www.w3.org/2000/svg">
<path d="M10.5 8.848C10.5 9.01 10.464 9.177 10.387 9.339C10.3084 9.50639 10.2053 9.6611 10.081 9.798C9.86 10.041 9.617 10.216 9.341 10.329C9.071 10.442 8.778 10.5 8.463 10.5C8.003 10.5 7.512 10.392 6.993 10.172C6.44432 9.93412 5.92434 9.63488 5.443 9.28C4.91949 8.89759 4.42543 8.4764 3.965 8.02C3.50946 7.56211 3.08926 7.07037 2.708 6.549C2.35762 6.07186 2.06115 5.55739 1.824 5.015C1.608 4.5 1.5 4.01 1.5 3.543C1.5 3.237 1.554 2.945 1.662 2.675C1.77 2.4 1.942 2.148 2.181 1.923C2.469 1.639 2.784 1.5 3.118 1.5C3.244 1.5 3.37 1.527 3.483 1.581C3.6 1.635 3.703 1.716 3.785 1.833L4.831 3.305C4.911 3.417 4.971 3.521 5.011 3.62C5.051 3.714 5.074 3.809 5.074 3.894C5.0727 4.00742 5.0398 4.11824 4.979 4.214C4.90956 4.33107 4.82482 4.43835 4.727 4.533L4.384 4.889C4.36014 4.91235 4.34141 4.94041 4.32902 4.97141C4.31662 5.0024 4.31082 5.03564 4.312 5.069C4.312 5.104 4.317 5.136 4.326 5.172C4.339 5.208 4.353 5.235 4.362 5.262C4.442 5.411 4.582 5.604 4.781 5.838C4.984 6.072 5.2 6.311 5.434 6.549C5.678 6.788 5.912 7.008 6.151 7.211C6.385 7.408 6.579 7.543 6.732 7.624L6.814 7.661C6.84991 7.67382 6.88788 7.67992 6.926 7.679C6.9605 7.67974 6.99477 7.67328 7.02662 7.66002C7.05848 7.64676 7.08722 7.627 7.111 7.602L7.453 7.264C7.566 7.152 7.674 7.067 7.778 7.012C7.87364 6.95105 7.98459 6.91846 8.098 6.918C8.19265 6.9194 8.2861 6.93945 8.373 6.977C8.472 7.017 8.576 7.075 8.688 7.152L10.18 8.21C10.2881 8.28033 10.3741 8.37984 10.428 8.497C10.4747 8.60816 10.4992 8.72741 10.5 8.848Z" stroke="white" stroke-width="1.5" stroke-miterlimit="10"/>
</svg>
