<svg width="22" height="22" viewBox="0 0 22 22" fill="none" xmlns="http://www.w3.org/2000/svg">
<path d="M5.9 19.6C7.4 20.5 9.2 21 11 21C16.5 21 21 16.5 21 11C21 5.5 16.5 1 11 1C5.5 1 1 5.5 1 11C1 12.8 1.5 14.5 2.3 16L1.44 19.306C1.39563 19.4767 1.39718 19.656 1.4445 19.8259C1.49181 19.9958 1.58321 20.1501 1.70941 20.2733C1.83562 20.3965 1.99215 20.4841 2.16313 20.5272C2.33411 20.5704 2.51347 20.5675 2.683 20.519L5.9 19.6Z" stroke="white" stroke-width="1.5" stroke-miterlimit="10" stroke-linecap="round" stroke-linejoin="round"/>
</svg>
