<svg width="52" height="52" viewBox="0 0 52 52" fill="none" xmlns="http://www.w3.org/2000/svg">
<g clip-path="url(#clip0_0_333)">
<path d="M12.4686 4.94846C12.6662 5.06355 12.8883 5.14885 13.0548 5.29778C13.3947 5.59971 13.7007 5.94091 14.0297 6.25638C14.6051 6.81015 15.209 6.8968 15.932 6.58674C17.0774 6.09526 18.2283 5.61461 19.3832 5.14885C20.1238 4.85098 20.4934 4.37033 20.5124 3.58097C20.5232 3.12469 20.5178 2.66841 20.5151 2.21348C20.511 1.71523 20.7534 1.42007 21.2395 1.32665C23.288 0.932647 25.3541 0.756634 27.4365 0.912338C28.4777 0.989513 29.5161 1.13845 30.5506 1.28467C31.2979 1.39028 31.4848 1.63806 31.4889 2.39898C31.4902 2.78756 31.4834 3.17614 31.4916 3.56473C31.5078 4.3595 31.872 4.84692 32.6045 5.14343C33.7757 5.61732 34.9387 6.1088 36.1031 6.60164C36.7787 6.88732 37.3894 6.81015 37.9269 6.30241C38.2708 5.97747 38.593 5.63086 38.9356 5.30455C39.3309 4.9268 39.6654 4.89431 40.1149 5.2003C42.7713 7.00647 45.0026 9.23778 46.8074 11.8956C47.1094 12.341 47.0715 12.6768 46.691 13.0749C46.3755 13.4039 46.0425 13.7166 45.7284 14.0457C45.1976 14.6008 45.1082 15.2128 45.4061 15.9073C45.9017 17.069 46.3891 18.2348 46.863 19.4059C47.1514 20.1168 47.6334 20.4878 48.397 20.5094C48.8533 20.523 49.3096 20.5189 49.7645 20.5108C50.2871 20.5026 50.5863 20.7545 50.6825 21.2609C51.0643 23.2769 51.2443 25.3092 51.0981 27.3577C51.025 28.3826 50.8734 29.4035 50.7353 30.423C50.6134 31.318 50.409 31.4845 49.5262 31.4859C49.1552 31.4859 48.7829 31.4778 48.4119 31.4886C47.6442 31.5089 47.1568 31.8745 46.8697 32.5785C46.3864 33.7646 45.8868 34.9425 45.3926 36.1232C45.1177 36.7785 45.1962 37.381 45.6864 37.905C46.0208 38.2624 46.3769 38.5995 46.7208 38.9489C47.0688 39.3022 47.0958 39.6881 46.821 40.093C45.0053 42.7629 42.7591 45.0051 40.0905 46.8207C39.6843 47.0969 39.2984 47.055 38.9478 46.7056C38.6255 46.3834 38.3073 46.0571 37.9783 45.7403C37.4029 45.1865 36.799 45.1012 36.076 45.4126C34.9306 45.9041 33.7811 46.3848 32.6248 46.8505C31.8856 47.1484 31.5159 47.629 31.4983 48.4184C31.4889 48.8747 31.4929 49.331 31.4956 49.7859C31.4983 50.2841 31.2533 50.5779 30.7699 50.6714C28.7214 51.0654 26.6553 51.2454 24.5742 51.087C23.5493 51.0085 22.5298 50.8582 21.5102 50.7215C20.7263 50.6159 20.5273 50.3735 20.5246 49.5963C20.5232 49.2077 20.5313 48.8192 20.5219 48.4306C20.5043 47.6331 20.1414 47.1511 19.4076 46.8532C18.2364 46.3793 17.0733 45.8879 15.9103 45.395C15.2347 45.1093 14.6241 45.1852 14.0879 45.6942C13.7453 46.0192 13.4217 46.3658 13.0792 46.6921C12.6825 47.0699 12.3508 47.1024 11.8999 46.795C9.24345 44.9888 7.01349 42.7548 5.20868 40.0997C4.90539 39.6543 4.94331 39.3198 5.32512 38.9218C5.6284 38.605 5.94794 38.303 6.25258 37.9862C6.82665 37.3932 6.91059 36.7907 6.58835 36.0406C6.10093 34.9114 5.6284 33.7754 5.17212 32.634C4.85801 31.8487 4.37735 31.4927 3.51895 31.4818C3.09652 31.4764 2.67408 31.4751 2.25165 31.4818C1.73038 31.49 1.43116 31.2395 1.33367 30.7317C0.943736 28.6995 0.775846 26.6496 0.920719 24.5835C0.992478 23.5748 1.14277 22.5715 1.28087 21.5696C1.40679 20.6597 1.60311 20.5081 2.54004 20.5067C2.89478 20.5067 3.24951 20.5148 3.60425 20.504C4.37194 20.4823 4.86207 20.1168 5.14775 19.4141C5.63111 18.228 6.13072 17.0501 6.62356 15.8694C6.89706 15.2141 6.82123 14.6116 6.3311 14.0876C5.99668 13.7302 5.64059 13.3917 5.29669 13.0437C4.94872 12.6917 4.92029 12.3072 5.19649 11.901C7.01214 9.23101 9.25564 6.98751 11.9283 5.17593C12.0759 5.07574 12.2614 5.03241 12.4767 4.94305L12.4686 4.94846ZM49.1809 22.1355C48.9169 22.1355 48.6678 22.1382 48.4187 22.1355C46.9293 22.1166 45.8353 21.3015 45.3073 19.9042C44.8903 18.8021 44.4326 17.7135 43.9479 16.6385C43.3535 15.3224 43.5417 13.982 44.5423 12.9449C44.7278 12.7526 44.9607 12.6051 45.1949 12.4209C43.6054 10.2018 41.8005 8.3875 39.5882 6.81421C39.3851 7.05927 39.2226 7.30298 39.0168 7.49931C38.0095 8.45249 36.6718 8.63662 35.4031 8.07067C34.2807 7.56971 33.1407 7.10531 31.9979 6.65309C30.8511 6.19951 30.1376 5.39527 29.9318 4.17671C29.8573 3.73397 29.8641 3.27769 29.8316 2.80922C27.2632 2.38002 24.7205 2.36783 22.1385 2.82412C22.1385 3.05564 22.1385 3.25603 22.1385 3.45641C22.1317 5.0798 21.3369 6.16567 19.8354 6.72485C18.7631 7.12426 17.707 7.57242 16.6631 8.04495C15.2983 8.6637 13.9606 8.46332 12.8937 7.40318C12.7177 7.22852 12.6053 6.99022 12.4631 6.78171C10.198 8.40104 8.39723 10.2018 6.7928 12.4493C6.98371 12.578 7.19086 12.6741 7.34386 12.8271C8.49201 13.9753 8.67885 15.2859 7.99646 16.7617C7.51581 17.8015 7.08932 18.8671 6.68313 19.9367C6.16321 21.3082 5.06922 22.1138 3.60154 22.1369C3.33887 22.1409 3.07621 22.1369 2.82708 22.1369C2.36945 24.7635 2.38163 27.9128 2.85416 29.8666C3.05454 29.8666 3.27118 29.8666 3.48645 29.8666C5.0787 29.8747 6.16592 30.6708 6.71698 32.148C7.12316 33.2365 7.57809 34.3075 8.05604 35.3663C8.64907 36.6824 8.45816 38.0268 7.45759 39.0599C7.2721 39.2521 7.03651 39.3957 6.80499 39.5757C8.39994 41.8016 10.2048 43.6159 12.4117 45.1838C12.6053 44.9496 12.7597 44.7221 12.9533 44.5353C13.9701 43.5523 15.3078 43.356 16.6022 43.9314C17.7246 44.431 18.8646 44.8954 20.0074 45.349C21.1542 45.8039 21.8677 46.6082 22.0721 47.8267C22.1466 48.2695 22.1412 48.7257 22.1723 49.1874C24.7421 49.6288 27.2848 49.6275 29.8655 49.1834C29.8655 48.9451 29.8655 48.7447 29.8655 48.5443C29.8722 46.8979 30.6657 45.8323 32.2159 45.2623C33.2747 44.8738 34.3146 44.4283 35.3395 43.9571C36.6718 43.3451 38.023 43.5333 39.0723 44.5623C39.2619 44.7478 39.3892 44.9956 39.5476 45.219C41.8046 43.6024 43.6054 41.803 45.2138 39.5514C45.0229 39.4241 44.8144 39.3293 44.6614 39.1777C43.5106 38.0282 43.3237 36.7216 44.0061 35.2445C44.4854 34.2046 44.9146 33.1404 45.3181 32.0681C45.8353 30.6965 46.932 29.8882 48.397 29.8666C48.661 29.8625 48.925 29.8666 49.1823 29.8666C49.621 27.2561 49.625 24.7243 49.1796 22.1369L49.1809 22.1355Z" fill="white"/>
<path d="M8.16211 25.9875C8.17429 16.1484 16.1788 8.14112 25.9869 8.15872C35.8748 8.17632 43.8604 16.1849 43.8414 26.0661C43.8225 35.9242 35.8044 43.8516 25.8609 43.8421C16.1382 43.8326 8.15128 35.7752 8.16346 25.9875H8.16211ZM26.0153 9.78075C17.0576 9.78617 9.79091 17.0352 9.78414 25.9713C9.77737 34.925 17.0413 42.2214 25.9584 42.22C34.9568 42.2187 42.2289 34.9412 42.2194 25.9496C42.2099 17.0461 34.9243 9.77669 26.0153 9.78075Z" fill="white"/>
<path d="M13.2291 26.4154C11.4865 23.7089 12.0945 21.0809 14.8064 19.4372C14.931 19.3614 15.0623 19.1583 15.0528 19.0242C14.8836 16.6304 16.7412 14.4398 19.4423 13.9469C21.4665 13.5773 23.2524 14.081 24.7607 15.5107C25.0612 15.7951 25.198 16.1146 25.198 16.5397C25.1885 22.8559 25.1966 29.1721 25.1763 35.4869C25.1763 35.7902 25.0382 36.1652 24.8338 36.3859C22.57 38.8312 18.3483 38.7364 16.1712 36.214C15.5822 35.5316 15.237 34.7422 15.0799 33.8554C15.0474 33.674 14.9147 33.4411 14.7617 33.3612C12.6157 32.2496 11.1535 29.1342 13.2291 26.4127V26.4154ZM19.0348 30.7901C18.936 32.3268 18.0897 33.2272 16.6302 33.7891C17.0052 34.3672 17.2747 34.9426 17.6849 35.3881C19.024 36.8422 21.4963 36.9546 23.1996 35.7035C23.4676 35.5059 23.5814 35.2933 23.5787 34.9494C23.5638 32.079 23.5705 29.2086 23.5692 26.3383C23.5692 26.1961 23.5543 26.0526 23.5435 25.8657C22.7703 26.1406 22.3858 26.7147 22.092 27.3862C21.5789 27.2129 21.1036 27.0518 20.5878 26.8785C21.0915 25.3973 22.0988 24.528 23.5692 24.1354C23.5692 21.6888 23.5746 19.2598 23.5556 16.8295C23.5556 16.6697 23.3959 16.4666 23.2537 16.3583C22.088 15.4647 20.776 15.2413 19.3774 15.6312C18.0193 16.009 17.0377 16.8051 16.7141 18.2525C16.6139 18.6979 16.664 18.9701 17.2097 19.1217C18.4837 19.4778 19.418 20.825 19.2704 21.9785H17.7607C17.6971 21.7876 17.6538 21.6089 17.5793 21.4424C17.2909 20.7993 16.5977 20.4486 16.0182 20.653C14.1335 21.3192 12.8892 23.8754 14.8213 25.71C15.325 26.188 15.3155 26.6077 14.8281 27.0978C13.3171 28.6197 13.6325 30.855 15.5078 31.9179C16.2402 32.3322 16.9253 32.1075 17.2774 31.3289C17.3518 31.1637 17.3925 30.9837 17.4547 30.7914H19.0334L19.0348 30.7901Z" fill="white"/>
<path d="M26.0203 32.4879V30.8659C26.8272 30.8659 27.6152 30.851 28.4032 30.8727C28.7201 30.8808 28.9353 30.7982 29.129 30.5355C29.5406 29.9791 29.9968 29.4564 30.4166 28.9067C30.6738 28.5683 30.9852 28.4193 31.4131 28.4274C32.4258 28.4464 33.4399 28.4207 34.4527 28.441C34.7587 28.4478 34.9225 28.3665 35.0769 28.0849C35.6496 27.0464 36.7761 26.5928 37.8782 26.9137C38.9722 27.2319 39.6708 28.2474 39.6018 29.4172C39.5368 30.5288 38.7217 31.421 37.5803 31.6336C36.6082 31.8137 35.5711 31.3208 35.0742 30.3947C34.9333 30.1307 34.7844 30.0414 34.496 30.0481C33.6525 30.0657 32.8063 30.0346 31.9628 30.0684C31.7488 30.0766 31.4862 30.2092 31.3413 30.3717C30.8715 30.9011 30.4369 31.4644 30.005 32.0262C29.7585 32.3471 29.462 32.4988 29.0518 32.492C28.058 32.4771 27.0628 32.4866 26.0176 32.4866L26.0203 32.4879ZM37.9851 29.2479C37.9879 28.7984 37.6358 28.4369 37.1944 28.4356C36.7585 28.4329 36.3848 28.8025 36.3821 29.2385C36.3794 29.6744 36.749 30.0495 37.1836 30.0522C37.6263 30.0549 37.9824 29.6974 37.9851 29.2479Z" fill="white"/>
<path d="M26.1972 21.1351V19.5334C27.3237 19.5334 28.4475 19.5118 29.5699 19.5537C29.7743 19.5619 30.0032 19.7988 30.1602 19.9816C30.6219 20.5191 31.0322 21.0999 31.506 21.6253C31.659 21.7945 31.942 21.9218 32.1708 21.9326C32.9791 21.9692 33.7902 21.9326 34.5998 21.9543C34.9221 21.9624 35.094 21.8758 35.2565 21.5698C35.8251 20.5056 37.0884 20.0628 38.2122 20.4812C39.3129 20.8914 39.9777 22.0572 39.7584 23.1945C39.5268 24.3941 38.4667 25.2484 37.2522 25.1821C36.341 25.1334 35.6451 24.6933 35.224 23.8823C35.094 23.6318 34.9491 23.5587 34.6824 23.5614C33.6358 23.575 32.5906 23.5574 31.544 23.5723C31.1351 23.5777 30.8358 23.4301 30.5908 23.1092C30.2117 22.6137 29.7798 22.1547 29.4359 21.6375C29.1556 21.2164 28.8171 21.0999 28.3378 21.1257C27.6351 21.1622 26.9297 21.1351 26.1986 21.1351H26.1972ZM38.1607 22.7491C38.1553 22.3117 37.7938 21.9529 37.3578 21.9502C36.9029 21.9462 36.5265 22.3361 36.5468 22.791C36.5658 23.2256 36.9408 23.5763 37.3754 23.5655C37.8114 23.5533 38.1675 23.1837 38.1621 22.7504L38.1607 22.7491Z" fill="white"/>
<path d="M26.0117 15.458V13.8603C26.8837 13.8603 27.7529 13.836 28.6194 13.8793C28.809 13.8888 29.0229 14.1122 29.1637 14.2868C29.5442 14.7594 29.9179 15.2427 30.2415 15.7545C30.5082 16.1783 30.8155 16.3963 31.372 16.2108C31.4099 16.1093 31.4654 15.9563 31.5237 15.8046C31.9163 14.7878 32.9196 14.1582 34 14.2489C35.0872 14.3396 35.9673 15.1534 36.1731 16.2609C36.3681 17.3129 35.8157 18.3839 34.8354 18.8551C33.8524 19.3276 32.6853 19.111 31.9853 18.262C31.7376 17.9615 31.4912 17.8531 31.131 17.887C30.9306 17.9059 30.7248 17.8735 30.5244 17.8938C30.014 17.9466 29.6593 17.734 29.379 17.3143C29.0419 16.8106 28.6533 16.3394 28.3134 15.8371C28.1252 15.5596 27.9194 15.4255 27.5701 15.4485C27.0692 15.481 26.5655 15.4567 26.0158 15.4567L26.0117 15.458ZM34.5971 16.6942C34.6093 16.265 34.2397 15.8777 33.8051 15.8669C33.3596 15.8561 32.9967 16.2054 32.9859 16.6549C32.9751 17.1058 33.319 17.47 33.7644 17.4822C34.1977 17.493 34.5836 17.1274 34.5958 16.6942H34.5971Z" fill="white"/>
<path d="M31.3761 35.7754C30.8778 35.6319 30.5393 35.7686 30.2645 36.21C29.9449 36.7245 29.5469 37.1903 29.2003 37.6885C28.9674 38.023 28.6722 38.18 28.2606 38.1706C27.5349 38.1557 26.8092 38.1665 26.0428 38.1665V36.5445C26.5601 36.5445 27.0949 36.5729 27.6243 36.5309C27.8382 36.5133 28.1022 36.3901 28.2362 36.2263C28.6654 35.7077 29.054 35.1526 29.4426 34.6002C29.6877 34.2522 29.9977 34.0749 30.4283 34.1087C30.6124 34.1236 30.802 34.0925 30.9848 34.1141C31.4343 34.1669 31.7443 34.0234 32.0584 33.6592C32.776 32.8279 33.954 32.6695 34.9248 33.184C35.8549 33.6768 36.3654 34.718 36.1731 35.7307C35.9619 36.841 35.1021 37.6371 34 37.7441C32.9615 37.8456 31.9488 37.2228 31.5453 36.2317C31.483 36.0773 31.4289 35.9189 31.3747 35.7741L31.3761 35.7754ZM34.5971 35.3449C34.6093 34.917 34.237 34.5298 33.8037 34.5189C33.3609 34.5081 32.9954 34.8601 32.9859 35.3083C32.9764 35.7592 33.323 36.1261 33.7658 36.1356C34.1977 36.145 34.5836 35.7768 34.5971 35.3449Z" fill="white"/>
<path d="M28.4109 22.7854V24.3424H26.8457V22.7854H28.4109Z" fill="white"/>
<path d="M28.4727 26.0215H30.0283V27.5988H28.4727V26.0215Z" fill="white"/>
</g>
<defs>
<clipPath id="clip0_0_333">
<rect width="50.2857" height="50.2898" fill="white" transform="translate(0.859375 0.856934)"/>
</clipPath>
</defs>
</svg>
