<svg width="38" height="49" viewBox="0 0 38 49" fill="none" xmlns="http://www.w3.org/2000/svg">
<g clip-path="url(#clip0_0_183)">
<path d="M27.9746 38.0302C27.9746 38.9662 27.9746 39.8278 27.9746 40.6881C27.9746 42.1657 27.9786 43.6433 27.9746 45.1209C27.9693 47.1574 26.7519 48.3815 24.734 48.3828C17.6937 48.3828 10.6535 48.3841 3.61461 48.3828C1.66172 48.3828 0.412452 47.1348 0.409797 45.1846C0.407142 43.707 0.40847 42.2294 0.409797 40.7518C0.409797 39.9088 0.620885 39.6963 1.46656 39.6963C9.56621 39.6963 17.6672 39.6963 25.7668 39.6963C25.9793 39.6963 26.1917 39.6963 26.4413 39.6963V38.0939C26.4081 38.074 26.3815 38.0461 26.3523 38.0435C25.2039 37.9758 25.1708 37.9466 24.9822 36.7982C24.969 36.7159 24.9477 36.6323 24.9544 36.5513C25.026 35.618 24.3928 35.314 23.6626 35.1188C23.5511 35.0896 23.3838 35.156 23.2803 35.2316C22.8939 35.5157 22.5275 35.8291 22.1452 36.1198C21.7137 36.449 21.3725 36.4398 20.9955 36.0707C20.3197 35.4095 19.6586 34.7351 18.9908 34.0647C18.647 33.7195 18.6058 33.3504 18.8952 32.9495C19.0798 32.6946 19.2324 32.4105 19.4462 32.1835C19.8604 31.7427 19.8763 31.3325 19.6121 30.7749C19.401 30.3288 19.166 30.147 18.7001 30.147C18.3549 30.147 18.0084 30.0859 17.6632 30.0394C17.1242 29.9651 16.8879 29.7235 16.8813 29.1924C16.868 28.2299 16.8773 27.2674 16.8786 26.3036C16.8786 25.831 17.1308 25.5681 17.5809 25.4818C17.792 25.442 18.0044 25.3822 18.2181 25.3809C19.0134 25.3743 19.5816 25.0795 19.6958 24.2232C19.7223 24.0254 19.709 23.7758 19.6081 23.6179C19.3692 23.2421 19.0612 22.9102 18.7903 22.5545C18.4385 22.0924 18.4491 21.7752 18.8474 21.3702C19.4979 20.7064 20.1538 20.0493 20.8149 19.3988C21.2145 19.0058 21.4893 18.9859 21.9606 19.3058C22.3443 19.566 22.7054 19.8647 23.105 20.0944C23.2683 20.1874 23.5179 20.1887 23.7144 20.1555C24.5627 20.0081 24.8282 19.4293 24.7738 18.6367C24.7738 18.6208 24.7765 18.6035 24.7778 18.5876C24.8986 17.3569 25.0008 17.2653 26.2421 17.2653C26.9869 17.2653 27.733 17.2574 28.4778 17.268C29.0858 17.2773 29.3022 17.4724 29.4124 18.0751C29.4549 18.3035 29.5213 18.5332 29.52 18.7628C29.516 19.4572 29.7908 19.874 30.501 20.0665C30.8608 20.1648 31.0958 20.2033 31.3773 19.9298C31.6853 19.6311 32.0384 19.3788 32.3809 19.1173C32.7354 18.8465 33.0978 18.8624 33.4138 19.1717C34.1254 19.8661 34.829 20.571 35.526 21.2813C35.8194 21.58 35.8433 21.9252 35.607 22.277C35.441 22.5239 35.295 22.7947 35.0905 23.0072C34.6192 23.4957 34.5462 23.9736 34.8848 24.5936C35.064 24.9229 35.2034 25.1154 35.5924 25.1273C36.0212 25.1406 36.4473 25.2203 36.8748 25.2734C37.3421 25.3318 37.5851 25.6026 37.5877 26.0726C37.593 27.0523 37.5917 28.0308 37.5877 29.0105C37.5851 29.4327 37.366 29.6969 36.9545 29.7805C36.4845 29.8761 36.0132 29.9784 35.5379 30.0315C35.2326 30.066 35.1277 30.2226 34.975 30.4735C34.5595 31.1573 34.748 31.6405 35.2352 32.2074C36.2031 33.3345 36.1699 33.3637 35.1197 34.4258C34.6418 34.909 34.1692 35.3976 33.6833 35.8742C33.2651 36.2831 32.9704 36.3043 32.4938 35.9804C32.3013 35.8503 32.0928 35.7348 31.9309 35.5742C31.4131 35.063 30.8834 34.9475 30.2209 35.3392C29.9514 35.4985 29.7762 35.6246 29.7576 35.9472C29.7377 36.311 29.6779 36.6721 29.6434 37.0358C29.5664 37.839 29.3606 38.0262 28.5389 38.0302C28.3756 38.0302 28.2109 38.0302 27.9799 38.0302H27.9746ZM32.8429 34.3899C33.2956 33.9585 33.6979 33.5748 34.1134 33.1779C33.8187 32.8021 33.52 32.4052 33.204 32.0215C32.9398 31.7002 32.9319 31.3803 33.1031 31.0072C33.3434 30.4815 33.5757 29.9478 33.7497 29.3982C33.8944 28.9375 34.1625 28.7158 34.6272 28.6574C35.1131 28.595 35.5937 28.4941 36.0544 28.4131V26.6873C35.526 26.6222 35.0334 26.5492 34.5396 26.5067C34.0988 26.4682 33.8731 26.2279 33.7297 25.8243C33.5426 25.2959 33.3368 24.7689 33.0806 24.271C32.8708 23.8648 32.8788 23.5249 33.1456 23.1638C33.447 22.7562 33.7311 22.3341 33.9568 22.0115C33.5399 21.5428 33.1682 21.1273 32.7911 20.7038C32.3809 21.033 31.9879 21.3384 31.6069 21.657C31.2737 21.9358 30.9445 21.9477 30.5528 21.7566C30.0497 21.511 29.5332 21.276 28.9982 21.1167C28.5309 20.9773 28.3079 20.7091 28.2441 20.2497C28.1897 19.8555 28.1286 19.4612 28.0397 19.0748C28.0145 18.962 27.8883 18.7921 27.8007 18.7881C27.2949 18.7602 26.7878 18.7748 26.2713 18.7748C26.2076 19.3191 26.1386 19.7944 26.1001 20.2723C26.0616 20.7516 25.8133 21.0012 25.3633 21.1499C24.8481 21.3198 24.3437 21.5349 23.8604 21.7831C23.4582 21.9902 23.117 21.9889 22.7559 21.7154C22.3523 21.4087 21.9314 21.1246 21.5995 20.8896C21.1455 21.3185 20.7432 21.6995 20.329 22.0924C20.6105 22.4482 20.8866 22.8226 21.1906 23.1718C21.5305 23.5621 21.5544 23.9365 21.3088 24.3972C21.0618 24.8618 20.8587 25.3583 20.7114 25.8641C20.5773 26.3288 20.3184 26.5638 19.8564 26.6315C19.3705 26.7032 18.8872 26.7988 18.3921 26.8851V28.6016C18.8979 28.6601 19.3864 28.7225 19.8763 28.7716C20.2985 28.8141 20.5587 29.0119 20.7034 29.4327C20.8906 29.9784 21.1216 30.512 21.3778 31.0298C21.577 31.4321 21.5756 31.7786 21.3048 32.1397C21.0074 32.5353 20.7313 32.9469 20.4737 33.3133C20.8906 33.7381 21.2796 34.1351 21.6911 34.5546C22.0629 34.2625 22.4571 33.9625 22.8382 33.6465C23.1701 33.3704 23.498 33.3438 23.8923 33.5297C24.4286 33.7832 24.9809 34.0103 25.5412 34.2041C25.9129 34.3329 26.1226 34.5453 26.1824 34.9356C26.2607 35.4573 26.3629 35.9764 26.4559 36.5061H28.187C28.2428 35.995 28.3012 35.5038 28.3464 35.0126C28.3875 34.5639 28.6172 34.3037 29.046 34.1536C29.589 33.9638 30.124 33.7381 30.6418 33.4845C31.0122 33.3027 31.3268 33.3 31.6587 33.5469C32.0703 33.8523 32.4924 34.143 32.8389 34.3899H32.8429ZM1.90069 41.2231C1.90069 42.6064 1.89405 43.9632 1.90334 45.3187C1.90998 46.2507 2.53262 46.88 3.46857 46.88C10.6216 46.8853 17.7747 46.8853 24.9278 46.88C25.8651 46.88 26.4638 46.2573 26.4731 45.3028C26.4851 44.0416 26.4771 42.7803 26.4731 41.5191C26.4731 41.4249 26.4532 41.3306 26.4413 41.2217H1.90069V41.2231Z" fill="white"/>
<path d="M26.4736 7.54487H1.90112V8.15291C1.90112 17.5815 1.90112 27.01 1.90112 36.4386C1.90112 37.2378 1.65817 37.6122 1.14572 37.6069C0.635924 37.6029 0.40625 37.2378 0.40625 36.4267C0.40625 25.5205 0.40625 14.6143 0.40625 3.70812C0.40625 1.59194 1.61967 0.37852 3.7332 0.37852C10.7734 0.37852 17.8123 0.377192 24.8526 0.37852C26.3607 0.37852 27.5144 1.23747 27.8728 2.62481C27.9419 2.89431 27.9671 3.18107 27.9684 3.46119C27.9737 6.03407 27.9751 8.60695 27.9591 11.1798C27.9578 11.4108 27.8994 11.7228 27.7454 11.8516C27.5635 12.0043 27.2356 12.0826 26.9953 12.0441C26.6249 11.9857 26.4789 11.6538 26.4762 11.2927C26.4682 10.2638 26.4722 9.2349 26.4722 8.20469C26.4722 7.9936 26.4722 7.78118 26.4722 7.54222L26.4736 7.54487ZM26.4151 5.9876C26.4417 5.91193 26.4629 5.88007 26.4629 5.84953C26.4669 5.11936 26.4736 4.38918 26.4722 3.659C26.4709 2.427 25.9173 1.8787 24.6773 1.8787C17.6729 1.8787 10.6686 1.8787 3.66284 1.8787C3.53008 1.8787 3.39732 1.87206 3.26589 1.88667C2.59545 1.95703 1.98609 2.44293 1.93962 3.10141C1.87324 4.05197 1.92236 5.01049 1.92236 5.9876H26.4151Z" fill="white"/>
<path d="M16.1634 9.30393C16.6559 9.29463 16.9758 9.81903 16.7355 10.4364C16.2085 11.7945 15.6655 13.146 15.1292 14.4988C14.2636 16.684 13.398 18.8679 12.5337 21.0531C12.4965 21.1461 12.4647 21.239 12.4235 21.3293C12.2111 21.7953 11.8367 21.9745 11.4292 21.8072C11.0189 21.6399 10.857 21.2483 11.0388 20.7783C11.5606 19.4361 12.0969 18.1006 12.6266 16.761C13.5228 14.5001 14.4216 12.2392 15.3137 9.97569C15.4557 9.61325 15.6376 9.31986 16.1647 9.30127L16.1634 9.30393Z" fill="white"/>
<path d="M21.5512 15.6045C20.6776 14.7642 19.9129 14.0313 19.1496 13.2972C19.0301 13.1817 18.9093 13.0675 18.8031 12.94C18.5203 12.5989 18.5216 12.1926 18.7977 11.9045C19.0898 11.6005 19.5239 11.5806 19.8651 11.9005C20.3245 12.3307 20.7573 12.79 21.2007 13.2388C21.7716 13.8163 22.3491 14.3898 22.9106 14.9752C23.3102 15.3921 23.3129 15.7798 22.908 16.1953C21.9242 17.2043 20.9312 18.2053 19.9328 19.1996C19.5492 19.582 19.1137 19.59 18.7964 19.2541C18.5004 18.9394 18.5123 18.5106 18.8787 18.1522C19.7324 17.3198 20.6033 16.5046 21.5499 15.6045H21.5512Z" fill="white"/>
<path d="M6.86883 15.5873C7.75699 16.4449 8.5562 17.2163 9.35276 17.9889C9.45896 18.0925 9.57181 18.1974 9.64881 18.3221C9.85724 18.6554 9.84529 18.9913 9.55853 19.2727C9.2731 19.5528 8.90005 19.6139 8.61727 19.3378C7.50209 18.2505 6.40683 17.1406 5.33147 16.0148C5.05932 15.7307 5.11242 15.351 5.38856 15.0669C6.4294 13.9982 7.47687 12.9348 8.53629 11.8846C8.84562 11.578 9.27576 11.6045 9.56384 11.8873C9.85459 12.1727 9.87052 12.6281 9.55588 12.9587C8.88013 13.6663 8.18713 14.3566 7.49545 15.0483C7.33216 15.2116 7.14364 15.351 6.8675 15.5873H6.86883Z" fill="white"/>
<path d="M27.2179 23.6724C29.4164 23.6684 31.2047 25.4487 31.2033 27.6445C31.2033 29.8258 29.3832 31.6459 27.2166 31.6313C25.0446 31.6167 23.2723 29.839 23.2656 27.6684C23.259 25.454 25.0167 23.6777 27.2179 23.6724ZM27.9746 29.9386C29.054 29.6917 29.824 28.53 29.6925 27.4242C29.5319 26.0634 28.4685 25.1327 27.1196 25.1726C25.8956 25.2084 24.8481 26.2187 24.7645 27.4441C24.6835 28.623 25.4495 29.7581 26.4758 29.9306C26.4758 29.6611 26.4758 29.397 26.4758 29.1328C26.4771 28.469 26.4598 27.8038 26.489 27.1414C26.509 26.6847 26.8621 26.378 27.2644 26.3992C27.6533 26.4192 27.9374 26.7192 27.968 27.1586C27.9813 27.3564 27.9746 27.5569 27.9746 27.756C27.9746 28.4796 27.9746 29.2018 27.9746 29.9386Z" fill="white"/>
<path d="M14.2278 43.5731C15.2873 43.5731 16.3467 43.5677 17.4074 43.5757C18.0141 43.5797 18.3182 43.8399 18.3168 44.3205C18.3168 44.7944 17.9955 45.0719 17.4061 45.0732C15.27 45.0785 13.1339 45.0785 10.9978 45.0732C10.3898 45.0732 10.0393 44.7719 10.0552 44.2939C10.0698 43.8372 10.3977 43.5784 10.9991 43.5744C12.0758 43.5677 13.1512 43.5731 14.2278 43.5731Z" fill="white"/>
<path d="M14.2278 43.5731C15.2873 43.5731 16.3467 43.5677 17.4074 43.5757C18.0141 43.5797 18.3182 43.8399 18.3168 44.3205C18.3168 44.7944 17.9955 45.0719 17.4061 45.0732C15.27 45.0785 13.1339 45.0785 10.9978 45.0732C10.3898 45.0732 10.0393 44.7719 10.0552 44.2939C10.0698 43.8372 10.3977 43.5784 10.9991 43.5744C12.0758 43.5677 13.1512 43.5731 14.2278 43.5731Z" fill="white"/>
<path d="M16.0825 4.68259C15.4705 4.68259 14.8571 4.69321 14.2451 4.67993C13.7751 4.66931 13.4618 4.37724 13.4459 3.96834C13.43 3.56475 13.7366 3.20497 14.192 3.19701C15.4665 3.17577 16.741 3.17444 18.0155 3.19966C18.4775 3.20896 18.7536 3.56342 18.7284 3.98958C18.7045 4.40114 18.4323 4.66666 17.9703 4.67728C17.3411 4.69321 16.7118 4.68126 16.0825 4.68126V4.68259Z" fill="white"/>
</g>
<defs>
<clipPath id="clip0_0_183">
<rect width="37.7143" height="48.5342" fill="white" transform="translate(0.140625 0.114258)"/>
</clipPath>
</defs>
</svg>