<svg width="45" height="45" viewBox="0 0 45 45" fill="none" xmlns="http://www.w3.org/2000/svg">
<g clip-path="url(#clip0_0_273)">
<rect x="0.626953" y="0.371338" width="44" height="44.2188" rx="10" fill="url(#paint0_linear_0_273)"/>
<path d="M3.81675 24.8219C4.06062 24.8219 4.2544 24.8219 4.4495 24.8219C9.27028 24.8219 14.0897 24.8219 18.9105 24.8246C19.1874 24.8246 19.4774 24.8285 19.7384 24.905C20.3962 25.0974 20.8536 25.7777 20.8233 26.4473C20.7903 27.1592 20.2841 27.7721 19.5828 27.9185C19.3442 27.9686 19.0938 27.9765 18.8486 27.9778C14.0449 27.9804 9.24128 27.9804 4.43764 27.9804C4.24254 27.9804 4.04744 27.9804 3.8062 27.9804C3.8062 28.6923 3.76797 29.3633 3.81807 30.0276C3.85761 30.5536 4.27286 30.8449 4.87397 30.8515C5.82837 30.8621 6.78277 30.8542 7.73586 30.8542C10.8943 30.8542 14.0528 30.8542 17.2113 30.8542C18.399 30.8542 18.929 31.28 19.1768 32.4268C19.6672 34.6968 19.7858 36.984 19.4892 39.2896C19.4813 39.3528 19.4892 39.4174 19.4892 39.511C19.6211 39.5242 19.7476 39.5387 19.8742 39.5506C20.7112 39.6297 21.3387 40.3059 21.3361 41.1285C21.3334 41.9511 20.6967 42.6814 19.8649 42.6906C17.645 42.717 15.4225 42.7183 13.2026 42.6893C12.3549 42.6774 11.7275 41.9221 11.7499 41.0679C11.771 40.2413 12.4169 39.5756 13.2645 39.5532C14.1201 39.5308 14.9756 39.5321 15.8311 39.5532C16.1673 39.5611 16.2688 39.4504 16.3162 39.1195C16.5443 37.56 16.5285 36.0085 16.3162 34.449C16.2661 34.0786 16.1304 34.0021 15.7876 34.0034C12.2179 34.0153 8.64808 34.0113 5.0783 34.01C2.36406 34.0113 0.62926 32.2871 0.627942 29.5808C0.626624 21.1098 0.626624 12.6401 0.627942 4.16917C0.62926 1.83326 2.08723 0.371338 4.40995 0.371338C16.0078 0.371338 27.6056 0.371338 39.2034 0.371338C41.5116 0.371338 42.967 1.81876 42.9683 4.12171C42.9709 9.33533 42.9722 14.5503 42.9683 19.7639C42.9683 21.032 41.8452 21.8401 40.78 21.3392C40.0774 21.0096 39.8085 20.4085 39.8098 19.6505C39.8151 16.3773 39.8124 13.1042 39.8124 9.83098C39.8124 7.93932 39.8019 6.04765 39.819 4.15599C39.823 3.68801 39.6635 3.51928 39.1889 3.5206C27.5911 3.52983 15.9933 3.52983 4.39414 3.5206C3.94198 3.5206 3.78116 3.6867 3.78116 4.1283C3.78775 10.9053 3.78511 17.6811 3.78643 24.4581C3.78643 24.5543 3.80093 24.6506 3.81543 24.8206L3.81675 24.8219Z" fill="white"/>
<path d="M25.9225 22.2421C26.5263 22.4965 27.0681 22.718 27.602 22.9539C28.2479 23.2387 28.9202 22.9671 29.1641 22.308C29.9115 20.2885 29.9656 20.2515 32.1116 20.2515C32.6706 20.2515 33.2295 20.245 33.7898 20.2555C34.5833 20.27 35.1251 20.6483 35.3914 21.4063C35.4731 21.6383 35.601 21.8611 35.6406 22.0997C35.7407 22.6969 36.1639 22.9368 36.6714 23.062C36.8375 23.1029 37.0537 23.0475 37.2172 22.9724C38.5785 22.3493 39.7969 22.5716 40.8726 23.6394C41.2562 24.023 41.6451 24.4027 42.0208 24.7929C42.5468 25.3386 42.6377 25.9674 42.3438 26.6568C42.241 26.8981 42.1526 27.1538 42.0063 27.3687C41.7005 27.8195 41.7255 28.2598 42.0037 28.6935C42.1012 28.8451 42.2449 28.9993 42.4031 29.0718C42.7748 29.2419 43.1743 29.354 43.5539 29.5069C44.2354 29.7811 44.594 30.3004 44.6098 31.0281C44.6283 31.9654 44.6335 32.9026 44.6072 33.8399C44.5887 34.5425 44.2394 35.054 43.5724 35.3216C43.314 35.4257 43.0569 35.5483 42.7867 35.609C42.2502 35.7316 41.9259 36.0466 41.8244 36.5779C41.7928 36.7413 41.7888 36.9338 41.8455 37.0854C41.9984 37.4835 42.204 37.8605 42.3649 38.2547C42.6259 38.8914 42.5428 39.4898 42.0617 39.9895C41.3894 40.6894 40.7052 41.3776 40.0026 42.0472C39.5201 42.5073 38.9388 42.6127 38.3126 42.3636C38.0384 42.2542 37.7445 42.1606 37.5111 41.9892C36.9983 41.6135 36.5238 41.773 36.0505 42.0301C35.9372 42.092 35.8409 42.2291 35.7895 42.3531C35.6313 42.7314 35.5048 43.1229 35.3571 43.5052C35.0843 44.2118 34.5622 44.5743 33.8069 44.5822C32.9026 44.5914 31.9983 44.5914 31.0927 44.5822C30.3083 44.5743 29.8087 44.2184 29.5134 43.4775C29.4159 43.2336 29.284 42.9937 29.2432 42.7393C29.1469 42.1369 28.7172 41.9101 28.2149 41.7678C28.0765 41.7282 27.8946 41.7678 27.7536 41.8258C27.3581 41.9866 26.9784 42.1843 26.5856 42.3491C25.9423 42.618 25.3504 42.502 24.8548 42.0274C24.1667 41.3683 23.493 40.6908 22.83 40.0053C22.333 39.4912 22.2513 38.8821 22.5189 38.227C22.6243 37.9686 22.7219 37.701 22.8735 37.4703C23.1714 37.0182 23.1595 36.5792 22.8787 36.1442C22.7812 35.9926 22.6401 35.837 22.4806 35.7632C22.1089 35.5918 21.7134 35.4719 21.3311 35.3255C20.6602 35.0685 20.2976 34.5649 20.2752 33.861C20.2462 32.9079 20.2489 31.9535 20.2726 31.0004C20.291 30.2728 20.6694 29.7652 21.3522 29.4976C21.5974 29.4014 21.8373 29.2762 22.0918 29.23C22.6283 29.1325 22.9288 28.8148 23.0317 28.306C23.0699 28.1148 23.0765 27.8894 23.0132 27.7101C22.8814 27.341 22.681 26.9956 22.5294 26.6331C22.2499 25.9635 22.3317 25.3399 22.8471 24.8113C23.5023 24.1403 24.1495 23.4601 24.8442 22.8326C25.1316 22.5743 25.535 22.4438 25.9159 22.2381L25.9225 22.2421ZM38.5446 25.8488C38.2599 25.978 37.9541 26.0979 37.664 26.2495C37.059 26.5672 36.4842 26.5329 35.8792 26.2179C35.3861 25.9621 34.8641 25.7525 34.3368 25.5798C33.7423 25.3861 33.3402 25.0328 33.1465 24.4383C33.0753 24.2207 32.9711 24.0125 32.9065 23.7923C32.8354 23.5511 32.7444 23.3982 32.4425 23.3982C32.1367 23.3982 32.0418 23.5564 31.9851 23.7976C31.7346 24.8482 31.1467 25.5601 30.0288 25.7433C29.9023 25.7644 29.7705 25.8171 29.665 25.8883C28.6341 26.5843 27.6033 26.645 26.5408 25.9463C26.4485 25.8857 26.1875 25.9503 26.1031 26.0452C26.003 26.1572 25.9502 26.3774 25.9805 26.529C26.024 26.7478 26.1532 26.9521 26.2587 27.1565C26.5909 27.7918 26.5645 28.4009 26.2126 29.0323C25.9832 29.4449 25.7934 29.8918 25.6681 30.3466C25.4612 31.0993 25.0248 31.5844 24.2721 31.7914C24.0836 31.8441 23.8793 31.8942 23.725 32.0049C23.5932 32.0998 23.4469 32.2791 23.4469 32.4202C23.4469 32.5612 23.5959 32.7458 23.7303 32.8315C23.9188 32.9527 24.1535 33.0055 24.3723 33.0766C25.0341 33.2915 25.4387 33.7239 25.6378 34.4015C25.7841 34.9011 25.9977 35.3901 26.2416 35.8515C26.5606 36.4553 26.5843 37.0353 26.2758 37.639C26.1638 37.8579 26.0372 38.078 25.9779 38.3127C25.9423 38.4511 25.9753 38.6752 26.0689 38.7582C26.1822 38.8597 26.4024 38.9072 26.5579 38.8782C26.7781 38.836 26.985 38.7134 27.1867 38.604C27.8221 38.2586 28.4285 38.2968 29.0599 38.6462C29.4884 38.8821 29.9484 39.0851 30.419 39.2143C31.1414 39.4121 31.5896 39.8392 31.8005 40.5444C31.8612 40.7488 31.9113 40.9689 32.0273 41.139C32.1169 41.2695 32.3041 41.4066 32.4465 41.4052C32.5888 41.4052 32.7839 41.2668 32.8604 41.1337C32.9988 40.8964 33.0713 40.6183 33.1596 40.3546C33.3481 39.797 33.7383 39.4674 34.2841 39.2697C34.8536 39.0641 35.4178 38.8373 35.9635 38.5763C36.4882 38.3258 36.9957 38.2758 37.5256 38.5289C37.7484 38.6356 37.9725 38.7358 38.1953 38.84C38.4049 38.9375 38.5776 39.0311 38.8096 38.8136C39.0601 38.5789 38.9876 38.3825 38.8544 38.1677C38.2757 37.2396 38.2296 36.3235 38.8795 35.4086C38.9348 35.3295 38.9783 35.2333 38.9981 35.1384C39.2446 33.8926 39.9248 33.0727 41.2154 32.813C41.3195 32.7919 41.4421 32.552 41.4408 32.4149C41.4408 32.2778 41.3248 32.088 41.2035 32.0181C40.9807 31.8876 40.7184 31.823 40.4692 31.74C39.847 31.5304 39.4489 31.1243 39.2683 30.4797C39.155 30.0711 39.0284 29.6426 38.8017 29.2933C38.2493 28.443 38.2863 27.6244 38.8017 26.7979C39.0429 26.4117 39.0469 26.0992 38.542 25.8474L38.5446 25.8488Z" fill="white"/>
<path d="M17.0234 20.9556C17.1038 20.6919 17.1539 20.4151 17.2686 20.1686C19.3356 15.7209 21.4092 11.2758 23.4867 6.83202C23.9152 5.91585 24.805 5.57311 25.642 5.97253C26.4528 6.3601 26.7612 7.26704 26.3513 8.14894C24.2764 12.6112 22.1949 17.0707 20.1081 21.5277C19.739 22.316 19.0417 22.6561 18.2573 22.4768C17.5718 22.32 17.0801 21.6951 17.0234 20.9543V20.9556Z" fill="white"/>
<path d="M31.0747 14.16C29.7855 13.0448 28.5424 11.9705 27.3019 10.8935C26.7997 10.4571 26.5967 9.91006 26.7588 9.25753C26.9117 8.64323 27.3204 8.26885 27.9294 8.11726C28.4264 7.99334 28.8864 8.10276 29.2687 8.431C31.0391 9.95224 32.8121 11.4722 34.5588 13.0185C35.2746 13.6525 35.2733 14.686 34.5496 15.3293C32.8042 16.8782 31.0378 18.4048 29.2568 19.9128C28.5859 20.481 27.6407 20.361 27.087 19.719C26.5215 19.0652 26.569 18.1108 27.2452 17.507C28.3736 16.4999 29.5271 15.5218 30.6687 14.5305C30.7913 14.425 30.9073 14.313 31.076 14.16H31.0747Z" fill="white"/>
<path d="M12.521 14.1693C13.7628 15.2476 14.969 16.2864 16.1646 17.3383C16.3703 17.5202 16.5746 17.7285 16.7064 17.9658C17.0689 18.617 16.9015 19.4158 16.3452 19.8891C15.7612 20.3861 14.9334 20.4124 14.3072 19.8891C13.2223 18.9821 12.1651 18.0436 11.0973 17.1168C10.4395 16.546 9.77777 15.9792 9.12524 15.4018C8.32639 14.6939 8.3053 13.6565 9.10547 12.9539C10.8099 11.4563 12.5276 9.97333 14.2492 8.49559C14.9637 7.88261 15.9128 7.94193 16.5021 8.60632C17.0887 9.26676 17.0373 10.2291 16.3347 10.8526C15.0942 11.9546 13.8313 13.033 12.521 14.1693Z" fill="white"/>
<path d="M27.7153 32.3649C27.7588 29.7113 29.8931 27.6509 32.5493 27.697C35.137 27.7419 37.2264 29.9011 37.1763 32.477C37.1249 35.1029 34.9696 37.2121 32.3885 37.162C29.7691 37.1119 27.6718 34.9592 27.7153 32.3649ZM30.8738 32.4176C30.8725 33.2732 31.5791 33.9943 32.4293 34.0061C33.2756 34.0167 34.0007 33.3048 34.0165 32.4493C34.0323 31.5621 33.3244 30.8489 32.4333 30.8542C31.5567 30.8582 30.8751 31.5423 30.8725 32.419L30.8738 32.4176Z" fill="white"/>
</g>
<defs>
<linearGradient id="paint0_linear_0_273" x1="44.627" y1="28.0906" x2="0.625564" y2="28.1567" gradientUnits="userSpaceOnUse">
<stop offset="0.354167" stop-color="#262666"/>
<stop offset="1" stop-color="#1780B2"/>
</linearGradient>
<clipPath id="clip0_0_273">
<rect x="0.626953" y="0.371338" width="44" height="44.2188" rx="10" fill="white"/>
</clipPath>
</defs>
</svg>
