<svg width="52" height="57" viewBox="0 0 52 57" fill="none" xmlns="http://www.w3.org/2000/svg">
<g clip-path="url(#clip0_0_313)">
<path d="M17.1566 24.5366C16.7873 24.3777 16.4739 24.2505 16.1666 24.1097C14.5318 23.365 13.672 21.7801 13.9294 20.003C13.9914 19.5731 14.0217 19.1387 14.0929 18.7118C14.2412 17.8187 14.0974 16.9922 13.6342 16.2081C13.3844 15.7873 13.1786 15.3408 12.9697 14.8972C12.2461 13.3638 12.5171 11.6957 13.7296 10.5211C16.2529 8.07491 15.6141 9.04369 16.4648 5.78314C16.8993 4.11654 18.2268 3.04331 19.9297 2.94038C20.5322 2.90405 21.1483 2.93281 21.7356 2.81474C22.3108 2.69819 22.8891 2.49535 23.4037 2.21531C23.9456 1.92014 24.4104 1.4857 24.9144 1.12089C26.3176 0.103674 27.9858 0.0824817 29.3996 1.07245C29.9248 1.44029 30.3986 1.89743 30.9557 2.20017C31.4855 2.48778 32.0834 2.69365 32.6753 2.81626C33.2611 2.93735 33.8771 2.90557 34.4811 2.94341C36.119 3.04483 37.4586 4.11957 37.8976 5.70443C38.0595 6.2857 38.2124 6.87151 38.3214 7.46337C38.4607 8.22326 38.8194 8.83026 39.3992 9.33433C39.8412 9.7173 40.2605 10.1275 40.6737 10.5423C41.8287 11.7018 42.1148 13.3275 41.4412 14.8246C41.3791 14.9623 41.3246 15.1061 41.2429 15.2318C40.3422 16.6062 40.1182 18.0609 40.374 19.7048C40.7343 22.0132 40.0592 23.1304 37.9354 24.2702C38.0126 24.4639 38.0868 24.6683 38.1731 24.8681C39.045 26.8935 39.9169 28.9203 40.7948 30.9442C40.9825 31.3756 41.1339 31.8055 40.7873 32.2172C40.4603 32.6047 40.0395 32.5608 39.5899 32.4609C38.5046 32.2187 37.4102 32.0204 36.3233 31.7797C35.9812 31.704 35.7784 31.7616 35.5876 32.0855C35.0139 33.0619 34.3963 34.011 33.8075 34.9782C33.5683 35.3703 33.2959 35.6912 32.7858 35.6458C32.3014 35.6034 32.0925 35.2537 31.9214 34.8526C31.1525 33.0482 30.3683 31.2514 29.6115 29.4426C29.4586 29.0762 29.2421 28.8825 28.8561 28.7841C28.0372 28.5752 27.2334 28.1998 26.3782 28.5616C26.133 28.666 25.8575 28.8689 25.7485 29.0989C24.6041 31.4982 23.487 33.911 22.3714 36.3239C22.1791 36.7387 21.9581 37.102 21.448 37.1247C20.9364 37.1459 20.6836 36.8007 20.458 36.4057C19.898 35.4217 19.3106 34.453 18.7627 33.4645C18.5962 33.1648 18.4236 33.0876 18.0891 33.1527C16.9598 33.3752 15.8261 33.5629 14.6923 33.7627C14.2669 33.8384 13.8507 33.8429 13.56 33.4524C13.2754 33.0679 13.3769 32.6743 13.563 32.2778C14.6741 29.9042 15.7791 27.5277 16.8841 25.1512C16.9719 24.9635 17.0522 24.7743 17.1566 24.5411V24.5366ZM15.6959 20.5585C15.6747 21.4895 16.1122 22.1994 17.1566 22.543C19.1608 23.2045 20.6654 24.4049 21.6115 26.2955C21.6372 26.3455 21.672 26.3909 21.7038 26.4378C22.3154 27.3355 23.0874 27.7078 24.094 27.3022C26.2086 26.4499 28.2582 26.4953 30.3608 27.3234C31.2508 27.6745 32.0274 27.34 32.5859 26.5529C32.9462 26.0458 33.2807 25.519 33.6153 24.9937C34.1496 24.1551 34.8732 23.5497 35.792 23.1712C36.349 22.9411 36.9046 22.705 37.4525 22.4522C38.3759 22.0253 38.7876 21.2564 38.656 20.2467C38.6015 19.835 38.5545 19.4233 38.491 19.013C38.2927 17.74 38.4561 16.5366 39.1161 15.4089C39.3538 15.0032 39.5536 14.5733 39.7534 14.1464C40.1697 13.2594 40.0289 12.4602 39.3386 11.7638C39.1525 11.5761 38.9648 11.3869 38.7589 11.2234C37.4268 10.1699 36.6018 8.82572 36.3763 7.12732C36.3369 6.82912 36.2552 6.53546 36.1735 6.24634C35.9192 5.33962 35.2788 4.8189 34.3373 4.74927C33.7909 4.70992 33.2444 4.67359 32.698 4.65088C31.6732 4.61001 30.7301 4.34208 29.9082 3.70178C29.4162 3.31881 28.9152 2.95098 28.4081 2.5892C27.6013 2.01399 26.8035 2.0049 25.9952 2.57406C25.47 2.94341 24.9613 3.33395 24.4497 3.72146C23.655 4.32392 22.7513 4.60093 21.7659 4.64634C21.1998 4.67207 20.6351 4.70689 20.0705 4.74776C19.0684 4.8189 18.4372 5.34719 18.189 6.32808C18.0633 6.82155 17.9453 7.31654 17.8438 7.81607C17.6168 8.9453 17.093 9.89894 16.2181 10.6588C15.82 11.0055 15.4401 11.3748 15.0616 11.7442C14.3441 12.4465 14.2018 13.2579 14.6378 14.1707C14.8739 14.6641 15.1146 15.1546 15.3735 15.6374C15.8518 16.529 16.0592 17.466 15.9305 18.4757C15.8412 19.1674 15.7761 19.8622 15.7004 20.557L15.6959 20.5585ZM23.649 29.2624C21.8734 29.27 20.7108 28.4057 19.8843 26.9767C19.574 26.4424 19.1971 25.9474 18.7929 25.3479C17.7954 27.4914 16.8433 29.5394 15.8382 31.7025C16.8402 31.5315 17.6925 31.3907 18.5432 31.2393C19.3122 31.1016 19.5286 31.1939 19.9313 31.8781C20.3823 32.6456 20.8304 33.4146 21.3254 34.2622C22.1231 32.5472 22.8754 30.929 23.6505 29.2624H23.649ZM38.5788 30.3947C37.781 28.5449 37.0196 26.7799 36.1977 24.8726C35.8147 25.2602 35.4817 25.5311 35.2319 25.8641C34.8368 26.3909 34.5008 26.9616 34.136 27.5095C33.6274 28.274 32.9432 28.8083 32.0637 29.0838C31.8911 29.1383 31.7171 29.1913 31.4961 29.2609C32.0032 30.434 32.4891 31.5602 33.0189 32.7879C33.5411 31.9493 33.9967 31.2181 34.4524 30.487C34.8929 29.7816 35.1245 29.6847 35.9525 29.8573C36.7971 30.0314 37.6418 30.2024 38.5788 30.3947Z" fill="white"/>
<path d="M42.649 50.2302C42.9562 50.2302 43.2545 50.2211 43.5511 50.2317C44.7001 50.2756 45.522 51.0476 45.5644 52.1905C45.5947 53.0382 45.581 53.8919 45.522 54.7381C45.4493 55.7977 44.635 56.5636 43.5708 56.5576C39.4535 56.5364 35.3377 56.5 31.2204 56.4455C30.1411 56.4319 29.354 55.5752 29.3282 54.4368C29.3101 53.6437 29.3237 52.849 29.3631 52.0573C29.4191 50.9356 30.2168 50.1727 31.3369 50.1273C31.5776 50.1182 31.8198 50.1273 32.1256 50.1273C32.1256 49.8578 32.1226 49.6368 32.1256 49.4158C32.1604 47.0938 32.1422 44.7702 32.2497 42.4527C32.3133 41.0647 32.9854 39.9157 34.0329 38.9666C35.9069 37.2698 37.7521 35.5411 39.5913 33.8064C40.7916 32.6741 42.4522 32.6908 44.034 33.9774C44.034 33.6883 44.034 33.4764 44.034 33.2645C44.0295 30.3748 44.0159 27.4836 44.0264 24.5939C44.031 23.3738 44.2172 22.181 44.8408 21.1048C45.5826 19.8257 46.8934 19.2641 48.2558 19.6138C49.6878 19.9816 50.6641 21.1926 50.7035 22.6412C50.7322 23.6993 50.7685 24.7559 50.7988 25.8124C50.9108 29.7587 51.0062 33.705 51.1409 37.6512C51.206 39.5767 50.5869 41.1933 49.214 42.5466C47.1568 44.5765 45.139 46.6472 43.0683 48.662C42.5899 49.1267 42.5127 49.5929 42.649 50.2302ZM40.775 50.156C40.775 49.935 40.7977 49.7095 40.7704 49.4915C40.6781 48.7347 40.9687 48.1837 41.5167 47.6493C43.6934 45.5286 45.8202 43.3549 47.9773 41.2145C48.9006 40.2987 49.3653 39.2179 49.3275 37.9161C49.1791 32.8391 49.0399 27.7636 48.8749 22.6866C48.8658 22.3929 48.7326 22.0463 48.5404 21.8268C47.8607 21.0488 46.8147 21.135 46.4151 22.0766C46.0927 22.838 45.8792 23.7023 45.8626 24.5273C45.802 27.4715 45.8353 30.4172 45.852 33.3629C45.8596 34.6359 45.5765 35.8454 44.7455 36.7914C43.3271 38.4051 41.8134 39.9339 40.3148 41.4749C39.9409 41.8594 39.3884 41.8049 39.0478 41.4446C38.7088 41.0874 38.7148 40.5803 39.0796 40.17C39.2673 39.9596 39.4823 39.7719 39.6821 39.5721C40.613 38.6351 41.5621 37.7133 42.4643 36.7506C43.0001 36.1784 42.9835 35.5381 42.5158 35.084C42.0616 34.6435 41.332 34.6722 40.8295 35.14C38.9525 36.8868 37.0815 38.6412 35.1894 40.3729C34.543 40.9648 34.0965 41.6792 34.0692 42.5269C33.992 45.0321 33.9981 47.5403 33.9723 50.0471C33.9723 50.0637 33.989 50.0804 34.0314 50.1545H40.775V50.156ZM43.7615 54.6715C43.7615 54.0039 43.7373 53.3258 43.7706 52.6507C43.7933 52.192 43.6571 52.024 43.1712 52.0285C41.5288 52.0467 39.8849 52.0255 38.2425 52.0103C36.0719 51.9907 33.8997 51.9559 31.729 51.9483C31.5458 51.9483 31.2068 52.0891 31.2022 52.1784C31.1614 52.9806 31.178 53.7875 31.178 54.67H43.7631L43.7615 54.6715Z" fill="white"/>
<path d="M7.96853 34.02C8.97062 33.0164 10.0423 32.7273 11.2351 33.1269C11.6832 33.2768 12.1161 33.5689 12.4688 33.8898C14.1551 35.4278 15.7445 37.0792 17.5004 38.5324C19.1398 39.8902 19.8573 41.5689 19.8709 43.6215C19.8845 45.5667 19.8754 47.5133 19.8754 49.4584C19.8754 49.6613 19.8754 49.8641 19.8754 50.1245C20.1721 50.1245 20.4128 50.1169 20.652 50.1245C21.7752 50.1669 22.5759 50.9237 22.6365 52.0439C22.6788 52.8174 22.6864 53.5924 22.6743 54.3659C22.6561 55.6389 21.8372 56.4397 20.5642 56.4518C16.6179 56.4897 12.6701 56.526 8.72388 56.5608C7.26011 56.5729 6.4866 55.8191 6.45179 54.3508C6.43665 53.709 6.42757 53.0656 6.42757 52.4238C6.42908 51.0569 7.24044 50.2425 8.60884 50.2244C8.85103 50.2213 9.09474 50.2244 9.35056 50.2244C9.48982 49.6038 9.42322 49.133 8.94488 48.6668C6.87563 46.6505 4.85936 44.5782 2.8007 42.5513C1.42322 41.2026 0.799566 39.5905 0.861628 37.6651C1.0236 32.6425 1.1568 27.62 1.30061 22.5975C1.34148 21.1898 2.32691 19.9818 3.73315 19.617C5.09398 19.2628 6.41546 19.8244 7.15567 21.0944C7.76267 22.1343 7.96399 23.2893 7.97156 24.4685C7.98973 27.34 7.97156 30.2115 7.96853 33.0815C7.96853 33.3434 7.96853 33.6068 7.96853 34.0185V34.02ZM17.9939 50.1547C18.0257 50.0442 18.0544 49.9913 18.0544 49.9383C18.0544 47.7479 18.0817 45.5576 18.0378 43.3687C18.0151 42.2365 17.7184 41.189 16.8132 40.3701C14.912 38.649 13.0486 36.887 11.17 35.1402C10.6857 34.6891 9.98329 34.6467 9.52615 35.0509C9.0569 35.4656 9.01754 36.0408 9.43079 36.6251C9.52766 36.7629 9.64271 36.89 9.76229 37.0111C10.7886 38.0405 11.8225 39.0622 12.8457 40.0946C13.2862 40.5396 13.318 41.0679 12.9547 41.4494C12.5869 41.8354 12.0374 41.8369 11.5999 41.4055C10.445 40.2656 9.29606 39.1182 8.16532 37.9527C6.7288 36.4738 6.05065 34.7375 6.13239 32.6274C6.23835 29.9315 6.20203 27.228 6.14148 24.529C6.12331 23.7207 5.89171 22.8942 5.61924 22.1237C5.38462 21.4622 4.82303 21.2276 4.27203 21.3502C3.56664 21.5061 3.13221 22.0268 3.11253 22.7489C2.96872 27.7305 2.83854 32.7137 2.67355 37.6953C2.62662 39.1258 3.07923 40.2989 4.10401 41.3025C6.13845 43.2991 8.11385 45.3563 10.171 47.3286C10.9188 48.0461 11.4153 48.7697 11.2321 49.8369C11.2139 49.9398 11.2518 50.0533 11.2639 50.1578H17.9954L17.9939 50.1547ZM20.8382 54.6883C20.8382 53.8679 20.8245 53.1368 20.8442 52.4087C20.8533 52.0242 20.6853 51.9213 20.3311 51.9349C19.7271 51.9591 19.1231 51.9515 18.5191 51.9576C15.2722 51.9863 12.0238 52.0212 8.77686 52.0333C8.34696 52.0348 8.20922 52.1801 8.23495 52.5933C8.26674 53.102 8.28036 53.6136 8.25311 54.1222C8.22738 54.6005 8.36059 54.7746 8.88282 54.7625C11.1292 54.711 13.3755 54.7035 15.6234 54.6898C17.34 54.6808 19.055 54.6883 20.8412 54.6883H20.8382Z" fill="white"/>
<path d="M18.1875 14.7685C18.1981 9.81866 22.2761 5.77552 27.2335 5.79671C32.1834 5.81942 36.2159 9.9004 36.1902 14.8609C36.1629 19.785 32.1031 23.8115 27.1684 23.8039C22.2155 23.7963 18.1754 19.732 18.1875 14.7685ZM27.2047 21.9905C31.1328 21.9829 34.3737 18.7405 34.3767 14.8124C34.3813 10.8571 31.1253 7.60258 27.1699 7.61015C23.2161 7.61923 19.9828 10.8813 20.001 14.8457C20.0176 18.7723 23.2706 21.998 27.2047 21.9905Z" fill="white"/>
<path d="M31.9922 53.2699C32.0452 52.8551 32.2737 52.5917 32.7218 52.5948C33.1729 52.5978 33.4075 52.8763 33.4408 53.3032C33.4726 53.7043 33.0806 54.0812 32.6824 54.0358C32.2556 53.9874 32.0088 53.7376 31.9922 53.2714V53.2699Z" fill="white"/>
<path d="M19.2851 52.5857C19.7013 52.6372 19.9617 52.8688 19.9602 53.3154C19.9587 53.768 19.6771 54.0011 19.2518 54.0344C18.8521 54.0662 18.4752 53.6726 18.5191 53.2745C18.5676 52.8461 18.8188 52.6024 19.2835 52.5842L19.2851 52.5857Z" fill="white"/>
<path d="M25.3781 16.3746C26.8071 15.0803 28.1891 13.827 29.5727 12.5721C30.0056 12.1786 30.4324 11.7774 30.8729 11.3929C31.3316 10.9933 31.8826 11.0024 32.2307 11.3975C32.5713 11.785 32.5471 12.3072 32.1096 12.7068C30.0903 14.5551 28.062 16.3943 26.0275 18.2259C25.5704 18.6361 25.1057 18.6194 24.6667 18.191C23.8417 17.3873 23.0273 16.5729 22.2251 15.7464C21.8164 15.3256 21.8164 14.7988 22.1751 14.4325C22.5475 14.054 23.0894 14.0662 23.5299 14.4976C24.1475 15.1031 24.7454 15.7297 25.3766 16.3731L25.3781 16.3746Z" fill="white"/>
</g>
<defs>
<clipPath id="clip0_0_313">
<rect width="50.2857" height="56.2225" fill="white" transform="translate(0.857422 0.342773)"/>
</clipPath>
</defs>
</svg>
