<svg width="45" height="45" viewBox="0 0 45 45" fill="none" xmlns="http://www.w3.org/2000/svg">
<g clip-path="url(#clip0_0_246)">
<path d="M0.625 34.6793C0.854167 34.3355 1.17729 34.2381 1.58062 34.2507C2.27615 34.2736 2.97281 34.2564 3.71302 34.2564C3.71302 34.0479 3.71302 33.8806 3.71302 33.7133C3.71302 26.0958 3.70729 18.4783 3.71646 10.8597C3.71875 8.66426 4.30542 6.65103 5.75604 4.95519C6.86406 3.6604 8.25396 2.99353 9.99792 2.99811C18.3591 3.01988 26.7202 3.02561 35.0814 2.99467C37.074 2.9878 38.5784 3.80707 39.7323 5.35394C40.9652 7.00738 41.4533 8.90488 41.4533 10.9433C41.4533 18.5322 41.4533 26.1222 41.4533 33.711V34.2553C42.221 34.2553 42.9452 34.253 43.6705 34.2553C44.3179 34.2576 44.5459 34.4936 44.5379 35.1376C44.4909 38.653 41.6584 41.8086 38.1648 42.2292C37.7546 42.2784 37.3398 42.3071 36.9261 42.3071C27.3642 42.3116 17.8033 42.3116 8.24135 42.3105C4.31917 42.3105 1.34 39.7782 0.697187 35.9064C0.685729 35.8377 0.650208 35.7735 0.627292 35.7059C0.627292 35.3633 0.627292 35.0196 0.627292 34.677L0.625 34.6793ZM19.325 36.8804H25.8173C25.8173 36.2983 25.8173 35.7437 25.8173 35.1892C25.8196 34.4363 25.9983 34.2576 26.7523 34.2576C31.0251 34.2576 35.2979 34.2576 39.5719 34.2576H40.0886C40.0978 34.0788 40.1093 33.9528 40.1093 33.8268C40.1093 26.2242 40.1093 18.6204 40.1116 11.0178C40.1116 9.74478 39.9271 8.50957 39.3817 7.35113C38.4593 5.39176 37.051 4.29176 34.7342 4.30894C26.4887 4.36967 18.2422 4.33988 9.99562 4.32613C8.5851 4.32384 7.48167 4.87957 6.62344 5.96467C5.44323 7.45769 5.05365 9.19707 5.05365 11.0602C5.05708 18.6342 5.05479 26.2093 5.05594 33.7832C5.05594 33.9333 5.06969 34.0834 5.07771 34.2576H5.63458C9.9074 34.2576 14.1802 34.2576 18.4542 34.2576C19.1084 34.2576 19.3204 34.4696 19.3239 35.133C19.3273 35.7036 19.3239 36.2743 19.3239 36.8815L19.325 36.8804ZM1.92781 35.5913C2.11229 36.1963 2.22 36.7922 2.46865 37.3215C3.61333 39.7587 5.56354 40.9997 8.25052 41.0054C15.5254 41.0203 22.8015 41.0111 30.0764 41.0111C32.3772 41.0111 34.6792 41.0134 36.98 41.0111C38.7537 41.0088 40.2789 40.3924 41.5095 39.1102C42.4456 38.1351 43.0014 36.9721 43.1664 35.6028H27.1419C27.1419 36.2089 27.1442 36.7796 27.1419 37.3502C27.1396 38.0331 26.9265 38.2531 26.2481 38.2543C23.7892 38.2565 21.3314 38.2577 18.8724 38.2543C18.2296 38.2543 18.0279 38.048 18.0245 37.4063C18.021 36.8105 18.0245 36.2147 18.0245 35.5936H1.92896L1.92781 35.5913Z" fill="white"/>
<path d="M22.627 10.7644C26.7131 10.7644 30.8003 10.7644 34.8863 10.7644C35.0295 10.7644 35.1728 10.7575 35.3148 10.7713C35.7239 10.8114 35.9703 11.0623 35.9554 11.4347C35.9405 11.8209 35.7251 12.0363 35.3435 12.0787C35.2026 12.0947 35.0582 12.0924 34.9161 12.0924C26.6856 12.0924 18.4562 12.0924 10.2257 12.0924C10.0687 12.0924 9.91058 12.0936 9.75589 12.0707C9.38693 12.0168 9.20589 11.7831 9.20704 11.421C9.20933 11.0555 9.40641 10.8332 9.7685 10.7793C9.92318 10.7564 10.0825 10.7644 10.2394 10.7644C14.369 10.7644 18.4986 10.7644 22.627 10.7644Z" fill="white"/>
<path d="M22.5389 15.813C18.4105 15.813 14.2809 15.813 10.1525 15.813C10.0092 15.813 9.86256 15.8267 9.72506 15.8004C9.38245 15.7339 9.21172 15.5025 9.20714 15.1633C9.20256 14.8287 9.34464 14.5766 9.69641 14.5079C9.86256 14.4758 10.0367 14.4769 10.2086 14.4769C18.4517 14.4758 26.696 14.4758 34.9391 14.4769C35.6633 14.4769 35.9646 14.6786 35.9601 15.1553C35.9555 15.6273 35.661 15.8153 34.9277 15.8153C30.7992 15.8153 26.6696 15.8153 22.5412 15.8153L22.5389 15.813Z" fill="white"/>
<path d="M26.8669 23.3172C26.8669 22.6308 26.8623 21.9456 26.8692 21.2592C26.8738 20.7975 27.1201 20.5351 27.5269 20.5305C27.936 20.5271 28.1972 20.7814 28.2006 21.2466C28.2098 22.6468 28.2339 24.0482 28.1903 25.4473C28.1468 26.8635 27.0972 27.7607 25.6202 27.7263C24.1707 27.6931 23.214 26.7501 23.206 25.3327C23.1991 24.0035 23.2071 22.6743 23.2037 21.3463C23.2037 20.9705 23.293 20.66 23.6998 20.55C24.165 20.4251 24.5237 20.7425 24.5282 21.3085C24.5397 22.609 24.542 23.9096 24.534 25.2089C24.5305 25.8231 24.6577 26.0866 25.1126 26.2814C25.6179 26.4991 26.3295 26.4109 26.6217 26.0316C26.7649 25.846 26.844 25.5699 26.8543 25.3304C26.8852 24.6601 26.8646 23.9875 26.8657 23.316L26.8669 23.3172Z" fill="white"/>
<path d="M10.1438 22.9506C10.1438 22.2505 10.1404 21.5504 10.145 20.8502C10.1484 20.369 10.3695 20.11 10.774 20.0974C11.1991 20.0848 11.4432 20.3438 11.4455 20.8457C11.4524 22.145 11.4627 23.4456 11.4455 24.7449C11.4386 25.2331 11.5543 25.6181 12.0241 25.8346C12.4951 26.0523 13.2101 25.9962 13.5068 25.641C13.6718 25.4427 13.7784 25.1357 13.7841 24.8744C13.8116 23.5326 13.7933 22.1897 13.8025 20.8468C13.8059 20.3415 14.0488 20.0906 14.4774 20.0963C14.9036 20.1032 15.1259 20.361 15.127 20.8709C15.1305 22.2275 15.1362 23.5854 15.1248 24.942C15.1133 26.3468 14.0878 27.2979 12.62 27.291C11.1373 27.283 10.1507 26.3399 10.145 24.9202C10.1415 24.2625 10.145 23.606 10.145 22.9483L10.1438 22.9506Z" fill="white"/>
<path d="M31.4156 24.1181C30.8083 23.2713 30.2217 22.4635 29.6465 21.6477C29.3405 21.2134 29.4459 20.7814 29.8905 20.5878C30.2595 20.4274 30.5196 20.5878 30.7316 20.8857C31.2254 21.5835 31.7227 22.2802 32.2452 23.0158C32.7654 22.3191 33.2684 21.6465 33.7703 20.9751C33.9628 20.7184 34.1874 20.5385 34.5346 20.6531C35.0078 20.8089 35.1659 21.2902 34.86 21.7199C34.3547 22.428 33.8391 23.1304 33.3062 23.8179C33.1218 24.0562 33.092 24.2201 33.2891 24.4779C33.8001 25.1471 34.2756 25.8414 34.7592 26.5312C35.0445 26.9391 34.9986 27.3494 34.6549 27.582C34.3249 27.8054 33.9754 27.708 33.6775 27.2955C33.202 26.6366 32.731 25.9744 32.22 25.2594C31.7903 25.838 31.3858 26.3834 30.9813 26.9277C30.8622 27.0881 30.7487 27.2531 30.6227 27.4078C30.342 27.7515 30.012 27.8031 29.6888 27.5613C29.3806 27.331 29.3222 26.9609 29.572 26.616C30.0738 25.9228 30.5929 25.241 31.1039 24.5535C31.2048 24.4172 31.3033 24.2785 31.4191 24.1181H31.4156Z" fill="white"/>
<path d="M19.2226 29.1275C18.6966 29.1252 18.4239 28.7494 18.5534 28.228C18.7688 27.3561 19.0094 26.4909 19.2409 25.6236C19.8081 23.5026 20.3741 21.3828 20.9448 19.263C21.0685 18.8047 21.3229 18.6168 21.6976 18.6798C22.1696 18.76 22.3633 19.1072 22.2201 19.6526C21.9153 20.8111 21.6025 21.9661 21.2931 23.1222C20.8141 24.912 20.3306 26.7006 19.8585 28.4927C19.76 28.8651 19.5743 29.108 19.2226 29.1275Z" fill="white"/>
<path d="M17.765 23.6655C17.765 24.5799 17.7684 25.4943 17.7639 26.4075C17.7616 26.9541 17.506 27.2623 17.0764 27.2543C16.6616 27.2462 16.4175 26.9483 16.4164 26.4258C16.4129 24.5971 16.4141 22.7695 16.4164 20.9407C16.4164 20.3816 16.6581 20.0939 17.1016 20.102C17.5312 20.11 17.7616 20.3873 17.7639 20.9235C17.7684 21.8379 17.765 22.7523 17.765 23.6655Z" fill="white"/>
</g>
<defs>
<clipPath id="clip0_0_246">
<rect width="44" height="44" fill="white" transform="translate(0.625 0.628418)"/>
</clipPath>
</defs>
</svg>
