<svg width="52" height="52" viewBox="0 0 52 52" fill="none" xmlns="http://www.w3.org/2000/svg">
<g clip-path="url(#clip0_0_214)">
<path d="M51.1408 38.3747C50.9978 38.771 50.8928 39.1869 50.7039 39.5595C50.1475 40.6604 49.233 41.3295 47.997 41.6445C47.997 42.2913 47.997 42.9421 47.997 43.5916C47.997 44.7698 48.0036 45.9481 47.9957 47.1264C47.9787 49.4251 46.2861 51.1348 43.9925 51.1387C38.8046 51.1479 33.6166 51.1479 28.4286 51.1387C26.1364 51.1348 24.4293 49.4212 24.428 47.125C24.4228 36.7163 24.4228 26.3075 24.428 15.8987C24.428 13.5474 26.1337 11.8601 28.5007 11.8575C33.6402 11.8522 38.7783 11.8522 43.9178 11.8575C46.3071 11.8601 47.9944 13.5487 47.9957 15.9433C48.001 23.7332 47.997 31.523 47.997 39.3142V39.9033C48.7475 39.8325 49.4692 38.9521 49.5571 38.0139C49.5728 37.8512 49.5676 37.6872 49.5676 37.5232C49.5676 26.705 49.5676 15.8882 49.5676 5.07004C49.5676 3.36564 48.6295 2.42881 46.9264 2.42881C35.2081 2.42881 23.4912 2.42881 11.773 2.42881C11.5617 2.42881 11.3505 2.42881 11.0684 2.42881V0.856934C23.3141 0.856934 35.5585 0.856934 47.8015 0.856934C47.9065 0.89236 48.0102 0.934347 48.1177 0.961901C49.3773 1.29255 50.2827 2.04831 50.8154 3.23575C50.9532 3.54277 51.0345 3.87473 51.1408 4.19619V38.3747ZM26.0327 17.3761V44.8184H46.4029V17.3827H42.4351C42.401 17.5021 42.3734 17.5965 42.3472 17.691C41.9037 19.217 41.245 19.7142 39.6627 19.7142C37.2904 19.7142 34.9168 19.7142 32.5446 19.7142C31.2968 19.7142 30.6053 19.2222 30.192 18.0426C30.1172 17.8288 30.0556 17.6097 29.9821 17.3761H26.0353H26.0327ZM46.4094 15.7859C46.3622 14.3806 45.3624 13.432 43.9729 13.4307C40.0943 13.4254 36.2158 13.4293 32.3373 13.4293C30.995 13.4293 29.6528 13.4149 28.3118 13.4346C27.0155 13.4543 25.9632 14.5446 26.0445 15.7859C26.219 15.7859 26.3962 15.7859 26.5746 15.7859C27.8998 15.7859 29.2263 15.7819 30.5515 15.7872C31.1826 15.7898 31.4438 16.0404 31.5041 16.6545C31.5277 16.8972 31.5605 17.1439 31.6222 17.3787C31.7836 17.9967 31.983 18.141 32.6259 18.141C35.031 18.141 37.4374 18.1292 39.8424 18.1502C40.3607 18.1542 40.6454 17.9495 40.7687 17.4758C40.8304 17.2396 40.8881 16.9995 40.9144 16.7568C40.9984 15.9932 41.2122 15.7859 41.9667 15.7845C43.4375 15.7832 44.9084 15.7845 46.4094 15.7845V15.7859ZM46.3897 46.4624H26.0314C25.7349 48.5237 27.0876 49.6206 28.8353 49.597C33.8055 49.5275 38.777 49.5734 43.7485 49.5708C44.0083 49.5708 44.276 49.5734 44.5292 49.5209C45.8885 49.2375 46.5669 48.1262 46.3923 46.4637L46.3897 46.4624Z" fill="white"/>
<path d="M6.35573 0.856934V2.42881C5.81909 2.42881 5.31787 2.42225 4.81535 2.42881C3.4429 2.44849 2.42997 3.45224 2.42997 4.83124C2.42472 14.3898 2.42735 23.9497 2.42735 33.5082C2.42735 33.604 2.43522 33.6998 2.44309 33.848H22.8303V35.4094H2.46015C2.46015 36.3725 2.37486 37.2923 2.48114 38.1884C2.62416 39.3863 3.64234 40.1408 4.92687 40.1408C10.6882 40.1434 16.4496 40.1408 22.211 40.1408C22.4052 40.1408 22.5981 40.1408 22.8237 40.1408V41.7022H17.9821C17.8496 42.231 17.725 42.7309 17.5898 43.2714H22.8172V44.8551H22.3055C20.5709 44.8551 18.8337 44.8945 17.1004 44.842C15.8041 44.804 15.6742 45.359 15.8316 46.41H22.8185V47.9753C22.6676 47.9831 22.5101 47.9963 22.3527 47.9963C19.9962 47.9976 17.6384 47.9976 15.2819 47.9963C14.471 47.9963 14.2164 47.7457 14.2138 46.9532C14.2125 46.511 14.2033 46.0688 14.2164 45.6279C14.244 44.678 14.6744 43.9498 15.5312 43.5483C15.8828 43.383 16.0088 43.1599 16.0796 42.8293C16.1544 42.4789 16.2449 42.1325 16.3473 41.7127H15.7975C12.2129 41.7127 8.62827 41.714 5.04365 41.7127C2.51919 41.7127 0.855469 40.0542 0.855469 37.535C0.855469 26.7496 0.855469 15.963 0.855469 5.17632C0.855469 2.86443 1.88808 1.51691 4.11732 0.913353C4.14618 0.905481 4.16849 0.876615 4.19473 0.856934C4.91506 0.856934 5.6354 0.856934 6.35573 0.856934Z" fill="white"/>
<path d="M9.49961 0.856934V2.3947H7.92773V0.856934H9.49961Z" fill="white"/>
<path d="M20.9396 11.0727C21.3057 11.0727 21.6652 11.0622 22.0247 11.0753C22.5443 11.095 22.8434 11.3863 22.85 11.9111C22.8631 12.9254 22.8631 13.9409 22.85 14.9552C22.8421 15.4747 22.5377 15.7634 22.0142 15.7818C21.656 15.7949 21.2965 15.7844 20.9448 15.7844C20.7926 16.1426 20.6313 16.4654 20.5237 16.8065C20.483 16.9377 20.521 17.1424 20.6037 17.2552C20.7664 17.477 20.9947 17.6489 21.1797 17.8562C21.5104 18.2262 21.5235 18.6408 21.1797 18.9951C20.462 19.7351 19.7338 20.4646 18.9925 21.1823C18.6382 21.5261 18.1475 21.5641 17.8693 21.1718C17.3156 20.3924 16.7055 20.4174 15.9852 20.853C15.93 20.8858 15.8684 20.9055 15.7818 20.9448C15.7818 21.2991 15.7923 21.6586 15.7792 22.0168C15.7608 22.5416 15.4721 22.846 14.9525 22.8526C13.9383 22.867 12.9227 22.8657 11.9085 22.8526C11.3837 22.846 11.0911 22.5469 11.0714 22.0273C11.0583 21.6691 11.0688 21.3096 11.0688 20.9475C10.99 20.9107 10.9284 20.8897 10.8759 20.8569C10.1582 20.4069 9.55068 20.3819 8.99042 21.164C8.6952 21.5759 8.20448 21.5248 7.83054 21.1587C7.10496 20.4502 6.38593 19.7325 5.67872 19.0056C5.33233 18.65 5.2864 18.1606 5.67347 17.8811C6.46335 17.313 6.44235 16.6884 5.98706 15.955C5.96082 15.9143 5.94638 15.8657 5.91096 15.7857C5.56719 15.7857 5.20768 15.7949 4.85079 15.7831C4.30234 15.7647 4.00712 15.4734 4.00056 14.9197C3.99006 13.9212 3.98875 12.9227 4.00056 11.9242C4.00712 11.3758 4.30759 11.095 4.86129 11.0714C4.87703 11.0714 4.89409 11.0714 4.90984 11.0714C5.99887 11.0438 6.0028 11.0451 6.35969 9.98366C6.39249 9.88788 6.34132 9.75536 6.3059 9.64777C6.28753 9.59266 6.21799 9.5533 6.17206 9.50737C5.14076 8.45902 5.14076 8.3816 6.16813 7.35293C6.70083 6.82022 7.2296 6.28489 7.76756 5.75743C8.22285 5.31132 8.62304 5.31526 9.08752 5.75481C9.89576 6.51844 9.8997 6.52369 10.8811 5.98442C10.9756 5.93194 11.0478 5.76924 11.0596 5.65115C11.0858 5.37562 11.0596 5.09483 11.0714 4.81667C11.095 4.31939 11.3784 4.01236 11.8691 4.00448C12.9004 3.98874 13.9317 3.98874 14.963 4.00448C15.4774 4.01236 15.7608 4.3207 15.7792 4.85078C15.791 5.19323 15.7818 5.537 15.7818 5.90307C16.1584 6.06577 16.5244 6.23766 16.9023 6.37411C16.9902 6.4056 17.1464 6.35049 17.2264 6.28227C17.4376 6.10382 17.62 5.88864 17.8234 5.6997C18.2236 5.331 18.6408 5.32576 19.0358 5.71151C19.739 6.39773 20.4318 7.09314 21.1194 7.7951C21.5274 8.21235 21.5773 8.69257 21.1272 9.02846C20.4253 9.55199 20.3859 10.1044 20.8136 10.788C20.8635 10.868 20.891 10.9625 20.9383 11.0714L20.9396 11.0727ZM18.3299 7.29257C18.1842 7.47627 18.0504 7.68489 17.8798 7.85677C17.4311 8.31206 17.1936 8.31469 16.6176 8.03521C16.077 7.7728 15.5167 7.54449 14.9486 7.34506C14.3936 7.15087 14.2178 6.95405 14.2125 6.3505C14.2099 6.09726 14.2125 5.84272 14.2125 5.59867H12.6406C12.6406 5.84928 12.6406 6.07496 12.6406 6.30064C12.6367 6.97111 12.4832 7.13775 11.8573 7.35949C11.2761 7.56549 10.7053 7.81347 10.1503 8.08376C9.72519 8.29238 9.36437 8.27795 9.04291 7.92631C8.85659 7.72294 8.69127 7.49988 8.53644 7.30963C8.09821 7.74656 7.74394 8.09951 7.34244 8.49707C7.50121 8.64402 7.68621 8.80278 7.85678 8.97467C8.30551 9.42734 8.31339 9.66483 8.0326 10.2382C7.77543 10.763 7.54582 11.3062 7.35556 11.8599C7.14301 12.4806 6.9685 12.6393 6.29802 12.6433C6.06054 12.6446 5.82436 12.6433 5.59737 12.6433V14.2151C5.89784 14.2151 6.17206 14.2191 6.4476 14.2151C6.90421 14.2073 7.16269 14.4421 7.32145 14.8581C7.56419 15.4957 7.82529 16.1282 8.10739 16.7501C8.28452 17.1411 8.2714 17.4822 7.95912 17.7788C7.74788 17.9795 7.51039 18.1514 7.27946 18.3403C7.72295 18.7851 8.07721 19.1381 8.48527 19.5475C8.68864 19.3231 8.8789 19.1014 9.08227 18.8927C9.38536 18.5831 9.72388 18.5752 10.1123 18.7523C10.7342 19.0344 11.3666 19.2942 12.0043 19.537C12.4228 19.6957 12.6498 19.9595 12.642 20.4147C12.638 20.7008 12.642 20.9868 12.642 21.2584H14.2138C14.2138 20.9553 14.2178 20.6811 14.2138 20.4069C14.2073 19.9503 14.4421 19.6931 14.8594 19.5357C15.4971 19.2929 16.1295 19.0318 16.7514 18.7497C17.1424 18.5726 17.4836 18.587 17.7801 18.9006C17.9795 19.1118 18.1527 19.3506 18.3364 19.5763C18.7786 19.1276 19.1302 18.772 19.5593 18.3351C19.3415 18.1527 19.1066 17.9769 18.8954 17.7748C18.5831 17.4757 18.5752 17.1358 18.7523 16.7462C19.0344 16.1242 19.2942 15.4918 19.537 14.8528C19.6957 14.4356 19.9582 14.206 20.4135 14.2138C20.6995 14.2191 20.9855 14.2138 21.2584 14.2138V12.6419C20.9567 12.6419 20.6824 12.6393 20.4069 12.6419C19.9516 12.6472 19.6931 12.415 19.5344 11.9977C19.2929 11.3587 19.0305 10.7276 18.7484 10.1057C18.5713 9.716 18.5831 9.37485 18.898 9.07832C19.1105 8.87889 19.3467 8.70438 19.5658 8.52331C19.125 8.08376 18.7707 7.73081 18.3299 7.29126V7.29257Z" fill="white"/>
<path d="M14.5533 29.1442C14.59 29.0615 14.6097 28.9998 14.6438 28.9474C15.0939 28.2283 15.1162 27.6222 14.3355 27.0632C13.9261 26.7693 13.976 26.2799 14.3433 25.9033C15.0401 25.1895 15.7473 24.4836 16.4597 23.7856C16.8534 23.4012 17.3388 23.3513 17.6577 23.7804C18.1904 24.4981 18.7559 24.5519 19.4565 24.1018C19.5248 24.0585 19.6048 24.0349 19.7163 23.9851C19.7163 23.6413 19.7072 23.2831 19.719 22.9262C19.7347 22.3961 20.0168 22.0852 20.5298 22.0773C21.5428 22.0615 22.557 22.0733 23.6067 22.0733V23.6347H21.2869C21.2869 23.9444 21.279 24.2015 21.2882 24.4574C21.3079 24.9796 21.0494 25.2538 20.5626 25.4179C19.9774 25.6147 19.4054 25.8587 18.8477 26.1238C18.3058 26.3822 18.0644 26.3704 17.6249 25.9374C17.4517 25.7669 17.2903 25.5832 17.1315 25.4126C16.7484 25.8115 16.402 26.171 15.9572 26.6342C16.1055 26.7457 16.3193 26.873 16.4912 27.0422C16.9544 27.4949 16.961 27.7324 16.6815 28.3018C16.4243 28.828 16.1921 29.3699 16.0018 29.9222C15.7866 30.5507 15.6148 30.7108 14.9522 30.7161C14.7252 30.7174 14.4995 30.7161 14.22 30.7161V33.0489H12.6573C12.6573 31.9612 12.6298 30.8722 12.6717 29.7845C12.6875 29.3882 13.0155 29.1639 13.4262 29.1494C13.8015 29.1363 14.1767 29.1468 14.552 29.1468L14.5533 29.1442Z" fill="white"/>
<path d="M33.8789 5.53716V4.02563H44.0305V5.53716H33.8789Z" fill="white"/>
<path d="M22.0456 27.6052V29.0984C20.5249 29.4054 19.8964 30.0352 19.693 31.4693H18.2064C17.9847 29.7466 19.7389 27.5186 22.0456 27.6052Z" fill="white"/>
<path d="M7.16602 38.5387V37.0232H11.8187V38.5387H7.16602Z" fill="white"/>
<path d="M47.1853 5.54753H45.6777V4.03076H47.1853V5.54753Z" fill="white"/>
<path d="M4.02153 37.0193H5.5383V38.5439H4.02153V37.0193Z" fill="white"/>
<path d="M27.5722 31.5321C27.5748 26.6997 31.4441 22.8487 36.291 22.8579C41.0066 22.8671 44.8615 26.7732 44.8563 31.5387C44.851 36.2648 40.9384 40.1578 36.2096 40.1407C31.4481 40.1237 27.5709 36.2596 27.5735 31.5308L27.5722 31.5321ZM36.2346 38.5675C40.1367 38.5623 43.2936 35.3765 43.2844 31.4534C43.2765 27.6064 40.0908 24.4298 36.2411 24.4285C32.3193 24.4285 29.1362 27.5959 29.1427 31.4954C29.1493 35.4133 32.318 38.5728 36.2333 38.5675H36.2346Z" fill="white"/>
<path d="M39.3451 15.0405V16.535H33.1035V15.0405H39.3451Z" fill="white"/>
<path d="M39.3324 47.2483V48.7611H33.1092V47.2483H39.3324Z" fill="white"/>
<path d="M13.4166 9.4996C15.5671 9.49304 17.3411 11.2407 17.3555 13.3781C17.3699 15.5759 15.6039 17.3564 13.4127 17.3551C11.2714 17.3551 9.51054 15.5969 9.50005 13.449C9.48955 11.2775 11.2477 9.50485 13.4166 9.49829V9.4996ZM13.414 15.7806C14.7169 15.7871 15.7823 14.7243 15.7823 13.4149C15.7823 12.1369 14.7195 11.0715 13.4429 11.0715C12.1518 11.0715 11.0916 12.1067 11.0732 13.3873C11.0536 14.6915 12.1124 15.7727 13.4127 15.7806H13.414Z" fill="white"/>
<path d="M34.639 30.4012C35.9983 29.0393 37.2907 27.7429 38.5844 26.4479C39.1959 25.8352 39.5226 25.8391 40.1471 26.461C40.7953 27.1079 41.4435 27.7548 42.089 28.4042C42.6427 28.9619 42.6506 29.3201 42.1087 29.862C39.8558 32.1188 37.6017 34.3729 35.3449 36.6258C34.8358 37.1335 34.4592 37.1362 33.958 36.6389C32.7286 35.4173 31.5031 34.1919 30.2816 32.9624C29.8013 32.4783 29.8026 32.0965 30.2816 31.611C30.9822 30.9011 31.6868 30.1952 32.3966 29.4946C32.8821 29.0157 33.26 29.0183 33.7494 29.4946C34.0394 29.778 34.3175 30.0732 34.6403 30.4025L34.639 30.4012ZM33.2036 31.0573C32.6919 31.5388 32.2917 31.9167 31.9479 32.2395C32.8664 33.1592 33.7835 34.079 34.66 34.9555C36.5835 33.0346 38.5451 31.0743 40.4528 29.1692C40.1038 28.7834 39.7273 28.3662 39.3376 27.9358C39.2051 28.0618 39.0857 28.172 38.9715 28.2862C37.8838 29.3726 36.7974 30.459 35.711 31.5467C34.7059 32.5517 34.5786 32.5544 33.5959 31.5585C33.4371 31.3971 33.3138 31.2003 33.2036 31.0573Z" fill="white"/>
</g>
<defs>
<clipPath id="clip0_0_214">
<rect width="50.2857" height="50.2896" fill="white" transform="translate(0.855469 0.856934)"/>
</clipPath>
</defs>
</svg>
