<svg width="10" height="10" viewBox="0 0 10 10" fill="none" xmlns="http://www.w3.org/2000/svg">
<path d="M5 8.5C5.45963 8.5 5.91475 8.40947 6.33939 8.23358C6.76403 8.05769 7.14987 7.79988 7.47487 7.47487C7.79988 7.14987 8.05769 6.76403 8.23358 6.33939C8.40947 5.91475 8.5 5.45963 8.5 5C8.5 4.54037 8.40947 4.08525 8.23358 3.66061C8.05769 3.23597 7.79988 2.85013 7.47487 2.52513C7.14987 2.20012 6.76403 1.94231 6.33939 1.76642C5.91475 1.59053 5.45963 1.5 5 1.5C4.07174 1.5 3.1815 1.86875 2.52513 2.52513C1.86875 3.1815 1.5 4.07174 1.5 5C1.5 5.92826 1.86875 6.8185 2.52513 7.47487C3.1815 8.13125 4.07174 8.5 5 8.5Z" stroke="#FBFBFF" stroke-width="1.5" stroke-linecap="round" stroke-linejoin="round"/>
</svg>
