<svg width="129" height="57" viewBox="0 0 129 57" fill="none" xmlns="http://www.w3.org/2000/svg">
<g clip-path="url(#clip0_0_873)">
<path d="M80.6174 20.9604C80.5688 21.1206 80.5248 21.2828 80.4712 21.4417C80.1093 22.5133 79.1424 23.2409 77.9744 23.2996C77.5193 23.3226 77.0617 23.3149 76.6054 23.306C76.2639 23.2996 76.0597 23.0966 76.0705 22.8056C76.0814 22.5241 76.2747 22.3582 76.6117 22.3544C77.0151 22.3499 77.4185 22.3595 77.8218 22.3512C78.9056 22.3295 79.6549 21.5712 79.66 20.4901C79.6632 19.7574 79.6574 19.0253 79.6549 18.2926C79.6549 18.2734 79.6396 18.2549 79.6236 18.2179H48.9809C48.9739 18.2951 48.9598 18.3762 48.9592 18.4573C48.9573 19.1472 48.9534 19.8371 48.9592 20.5277C48.9681 21.5438 49.6925 22.2957 50.7067 22.3493C50.8337 22.3556 50.9614 22.3531 51.089 22.3531C58.7007 22.3531 66.3124 22.3531 73.9247 22.3531C74.0205 22.3531 74.1156 22.3512 74.2113 22.3531C74.5343 22.362 74.7442 22.5426 74.7493 22.8145C74.7551 23.0858 74.5483 23.2913 74.2311 23.3041C73.9343 23.3162 73.6369 23.3079 73.3395 23.3079C71.8109 23.3079 70.2823 23.3079 68.753 23.3079H68.365C68.5935 24.278 68.8137 25.2124 69.0402 26.1717C69.3287 26.1717 69.6032 26.1653 69.8776 26.173C70.5286 26.1909 70.9888 26.6536 71.0073 27.3071C71.0137 27.5299 71.015 27.7533 71.0048 27.976C70.9786 28.5613 70.535 29.0144 69.9542 29.0572C69.8483 29.0649 69.7423 29.0649 69.6357 29.0649C66.0794 29.0649 62.5231 29.0636 58.9662 29.0674C58.582 29.0674 58.2278 29.0176 57.9425 28.7285C57.467 28.2466 57.4376 26.9804 57.9412 26.5278C58.1448 26.3447 58.4518 26.2445 58.7288 26.1845C58.9911 26.1277 59.2758 26.1723 59.577 26.1723C59.8023 25.2207 60.0231 24.2863 60.2548 23.3079C60.0972 23.3079 59.9734 23.3079 59.8489 23.3079C56.8549 23.3079 53.8615 23.3117 50.8675 23.306C49.5093 23.3034 48.4409 22.5203 48.1078 21.2872C48.042 21.0441 48.0063 20.7856 48.0056 20.5341C48.0018 16.1092 48.0031 11.6823 48.0031 7.25543C48.0031 7.20246 47.9999 7.14885 48.0069 7.09651C48.0439 6.82717 48.2035 6.67591 48.4703 6.6574C48.7218 6.63953 48.9266 6.83675 48.9541 7.108C48.9636 7.20246 48.9579 7.29883 48.9579 7.39457C48.9579 10.5373 48.9579 13.6794 48.9579 16.8221C48.9579 16.9484 48.9579 17.0755 48.9579 17.2235H50.618C50.618 17.0869 50.618 16.9625 50.618 16.8387C50.618 12.6135 50.618 8.38832 50.618 4.16314C50.618 3.12663 51.1247 2.62114 52.1619 2.62114C60.2618 2.62114 68.3624 2.62114 76.4624 2.62114C77.4938 2.62114 78.0006 3.13046 78.0006 4.16952C78.0006 8.38385 78.0006 12.5988 78.0006 16.8131C78.0006 16.9395 78.0006 17.0665 78.0006 17.2191H79.6606V16.8789C79.6606 12.2184 79.6606 7.55796 79.6606 2.8975C79.6606 1.69186 78.9241 0.960434 77.7121 0.959796C68.7735 0.959796 59.8342 0.959796 50.8956 0.959796C49.69 0.959796 48.9592 1.69569 48.9573 2.90708C48.9566 3.52298 48.9598 4.13889 48.956 4.75416C48.9541 5.11923 48.7613 5.34262 48.4677 5.33432C48.1856 5.32666 48.0044 5.11093 48.0031 4.76309C47.9999 4.08336 47.9948 3.40427 48.0044 2.72454C48.0267 1.21382 49.2132 0.0171099 50.7246 0.00689801C52.6674 -0.00650511 54.6102 0.00306854 56.553 0.00306854C63.5596 0.00306854 70.5663 0.00306854 77.5729 0.00306854C79.2317 0.00306854 80.1502 0.705137 80.5867 2.30521C80.5918 2.325 80.6071 2.34159 80.618 2.3601V20.9604H80.6174ZM51.5741 17.2171H77.0464V16.8731C77.0464 12.6492 77.0464 8.42533 77.0464 4.20144C77.0464 3.65382 76.9685 3.57532 76.4247 3.57532C68.3484 3.57532 60.2721 3.57532 52.1957 3.57532C51.6519 3.57532 51.5747 3.65319 51.5747 4.20144C51.5747 8.41448 51.5747 12.6282 51.5747 16.8412C51.5747 16.9574 51.5747 17.0735 51.5747 17.2171H51.5741ZM68.0312 26.1557C68.0146 26.0447 68.0076 25.9509 67.9859 25.8602C67.8078 25.1078 67.6151 24.3585 67.4549 23.6028C67.4044 23.3641 67.3093 23.3028 67.077 23.3041C65.4437 23.3136 63.8098 23.3079 62.1759 23.3105C61.8702 23.3105 61.4771 23.2173 61.2843 23.3698C61.0916 23.5224 61.0922 23.9264 61.0207 24.2238C60.8682 24.8595 60.7233 25.4964 60.5701 26.1564H68.0305L68.0312 26.1557ZM64.307 27.1278C62.6093 27.1278 60.9109 27.1259 59.2132 27.1284C58.5156 27.1297 58.5743 27.0404 58.5628 27.7794C58.559 28.0309 58.6573 28.1132 58.9005 28.1132C62.5085 28.1088 66.1171 28.1107 69.7251 28.1075C69.8151 28.1075 69.9791 28.0775 69.9842 28.0443C70.0206 27.7871 70.0531 27.5222 70.0212 27.2676C70.0136 27.205 69.7634 27.1335 69.6242 27.1329C67.8518 27.124 66.0794 27.1272 64.307 27.1272V27.1278Z" fill="#1780B2"/>
<path d="M64.3142 21.9862C63.3593 21.9875 62.5928 21.2261 62.5909 20.2745C62.589 19.3299 63.3645 18.5493 64.3065 18.5474C65.2498 18.5455 66.0285 19.3222 66.0298 20.2668C66.0317 21.2184 65.2664 21.9849 64.3135 21.9869L64.3142 21.9862ZM65.0737 20.2687C65.073 19.8519 64.7156 19.4977 64.3008 19.5041C63.8961 19.5105 63.5553 19.8507 63.5476 20.2559C63.5393 20.6791 63.8789 21.0263 64.3039 21.0295C64.7297 21.0327 65.0743 20.6919 65.0737 20.2693V20.2687Z" fill="#1780B2"/>
<path d="M65.31 7.88734C65.3636 7.34738 65.4185 6.86296 65.4593 6.37725C65.5468 5.33883 66.2163 4.70761 67.2515 4.70697C67.5158 4.70697 67.7876 4.69484 68.0429 4.74909C68.7635 4.90291 69.2671 5.50733 69.3405 6.2579C69.3852 6.71169 69.4388 7.16484 69.4701 7.61991C69.4835 7.8216 69.5543 7.88734 69.7598 7.89053C70.6636 7.90648 70.9304 8.16497 71.0191 9.07639C71.0274 9.16063 71.0561 9.24807 71.044 9.32913C70.9425 10.0069 71.2833 10.3037 71.8979 10.515C72.9281 10.8692 73.9288 11.3115 74.936 11.7308C75.4855 11.96 75.7165 12.4891 75.5136 13.0022C75.3923 13.3079 75.1645 13.5007 74.8473 13.5888C74.5013 13.6851 74.1567 13.7834 73.7303 13.9041C74.0724 14.2359 74.3724 14.527 74.6717 14.8193C74.7554 14.901 74.8428 14.9801 74.913 15.072C75.0764 15.2852 75.0758 15.5061 74.8945 15.7071C74.7183 15.903 74.4496 15.9196 74.239 15.7275C73.9416 15.4563 73.6601 15.1659 73.3806 14.8761C73.2931 14.7855 73.2338 14.6687 73.1617 14.564C73.1285 14.5838 73.0953 14.6029 73.0621 14.6227C72.9715 14.9418 72.8732 15.2591 72.7928 15.5807C72.6919 15.9835 72.4724 16.2764 72.0562 16.3721C71.6484 16.466 71.3127 16.3383 71.0331 16.016C70.9604 15.9324 70.7976 15.8916 70.6763 15.8909C68.4904 15.8839 66.3044 15.8839 64.1184 15.8877C63.8107 15.8877 63.5248 15.852 63.3053 15.6082C63.0627 15.3388 62.9689 15.0095 63.1285 14.6948C63.4789 14.0049 63.4789 13.2614 63.5369 12.5248C63.6327 11.309 63.7144 10.0912 63.8063 8.87534C63.8516 8.2773 64.2422 7.90968 64.8441 7.88861C64.9902 7.88351 65.137 7.88798 65.3106 7.88798L65.31 7.88734ZM70.0451 8.86959H64.7968C64.4911 10.8916 64.6692 12.9378 64.128 14.9125H70.5519C70.4938 14.7606 70.4472 14.6329 70.3961 14.5078C70.0062 13.5466 69.6169 12.5848 69.2243 11.6243C69.0463 11.189 69.0392 10.7575 69.3596 10.4007C69.5556 10.1825 69.8345 10.0389 70.1191 9.83015C70.0981 9.55826 70.0719 9.22254 70.0451 8.86959ZM74.6405 12.655C74.5154 12.5976 74.4503 12.565 74.3833 12.5376C73.0991 12.0155 71.8169 11.4896 70.5289 10.9777C70.4108 10.9305 70.2583 10.9688 70.1223 10.9675C70.1313 11.0958 70.1083 11.2362 70.1536 11.3498C70.6591 12.618 71.1748 13.8817 71.6886 15.1467C71.7218 15.2284 71.762 15.3069 71.8335 15.4595C71.9784 14.9291 72.1188 14.4766 72.2234 14.0164C72.3447 13.4822 72.6504 13.1701 73.1904 13.052C73.6595 12.9492 74.1184 12.7999 74.6405 12.6544V12.655ZM68.5369 7.86628C68.4859 7.35057 68.4393 6.85721 68.3876 6.36449C68.348 5.99048 68.1202 5.72816 67.7947 5.67199C67.1239 5.55583 66.6733 5.69625 66.4978 6.07536C66.4888 6.09451 66.4786 6.1143 66.4761 6.13472C66.4052 6.70659 66.335 7.27845 66.2635 7.86564H68.5369V7.86628Z" fill="#1780B2"/>
<path d="M57.4618 5.5733C58.2251 5.5733 58.9891 5.56947 59.7525 5.57394C60.7973 5.58032 61.3576 6.14836 61.3615 7.19444C61.3627 7.50208 61.3723 7.81035 61.3576 8.1167C61.3181 8.93685 60.7532 9.52531 59.9369 9.53488C58.3036 9.55403 56.6704 9.55531 55.0371 9.53424C54.2106 9.52339 53.6406 8.90877 53.6215 8.07841C53.6138 7.74971 53.617 7.42102 53.6202 7.09232C53.6298 6.18666 54.1953 5.59883 55.108 5.57841C55.8924 5.56054 56.6774 5.57458 57.4624 5.57458V5.5733H57.4618ZM57.4969 8.58709C58.2705 8.58709 59.0446 8.59092 59.8182 8.58518C60.2343 8.58198 60.3958 8.41796 60.4047 8.0031C60.4111 7.6961 60.413 7.38847 60.4041 7.08084C60.3926 6.70427 60.2318 6.53386 59.852 6.53195C58.273 6.52556 56.6934 6.52492 55.1143 6.53322C54.7422 6.53514 54.5846 6.71512 54.5763 7.09488C54.5699 7.38081 54.5731 7.66738 54.575 7.95331C54.5788 8.42242 54.7378 8.58326 55.2075 8.58518C55.9709 8.58837 56.7336 8.58581 57.4969 8.58581V8.58709Z" fill="#1780B2"/>
<path d="M57.495 13.9693C56.7208 13.9693 55.9466 13.9718 55.1724 13.9693C54.2061 13.9655 53.6259 13.3885 53.6196 12.4292C53.6176 12.1005 53.6106 11.7712 53.6221 11.4431C53.6502 10.6204 54.2418 10.0211 55.0671 10.0147C56.6793 10.0026 58.2915 10.0039 59.9037 10.0147C60.699 10.0198 61.2836 10.5521 61.3455 11.3384C61.3812 11.791 61.3812 12.2524 61.3372 12.7043C61.2644 13.451 60.6964 13.9438 59.9458 13.9699C59.9248 13.9706 59.9037 13.9712 59.882 13.9712C59.0868 13.9712 58.2909 13.9712 57.4956 13.9712L57.495 13.9693ZM57.4675 13.0138C58.2628 13.0138 59.0574 13.0177 59.8526 13.0119C60.2311 13.0094 60.3926 12.8485 60.4034 12.4688C60.413 12.1407 60.4149 11.8114 60.4022 11.4833C60.3888 11.1495 60.2133 10.9695 59.8814 10.9683C58.2915 10.9619 56.7016 10.9619 55.1118 10.9683C54.7614 10.9695 54.5884 11.1508 54.5776 11.5025C54.5686 11.7993 54.5731 12.096 54.5756 12.3928C54.5795 12.8626 54.732 13.0126 55.2107 13.0138C55.9632 13.0157 56.7157 13.0138 57.4682 13.0138H57.4675Z" fill="#1780B2"/>
</g>
<path d="M6.71555 37.3V40.8H11.4155V43.02H6.71555V46.72H12.0155V49H3.91555V35.02H12.0155V37.3H6.71555ZM13.4801 42C13.4801 40.6267 13.7867 39.4 14.4001 38.32C15.0267 37.2267 15.8734 36.38 16.9401 35.78C18.0201 35.1667 19.2267 34.86 20.5601 34.86C22.1201 34.86 23.4867 35.26 24.6601 36.06C25.8334 36.86 26.6534 37.9667 27.1201 39.38H23.9001C23.5801 38.7133 23.1267 38.2133 22.5401 37.88C21.9667 37.5467 21.3001 37.38 20.5401 37.38C19.7267 37.38 19.0001 37.5733 18.3601 37.96C17.7334 38.3333 17.2401 38.8667 16.8801 39.56C16.5334 40.2533 16.3601 41.0667 16.3601 42C16.3601 42.92 16.5334 43.7333 16.8801 44.44C17.2401 45.1333 17.7334 45.6733 18.3601 46.06C19.0001 46.4333 19.7267 46.62 20.5401 46.62C21.3001 46.62 21.9667 46.4533 22.5401 46.12C23.1267 45.7733 23.5801 45.2667 23.9001 44.6H27.1201C26.6534 46.0267 25.8334 47.14 24.6601 47.94C23.5001 48.7267 22.1334 49.12 20.5601 49.12C19.2267 49.12 18.0201 48.82 16.9401 48.22C15.8734 47.6067 15.0267 46.76 14.4001 45.68C13.7867 44.6 13.4801 43.3733 13.4801 42ZM35.5916 49.14C34.285 49.14 33.085 48.8333 31.9916 48.22C30.8983 47.6067 30.0316 46.76 29.3916 45.68C28.7516 44.5867 28.4316 43.3533 28.4316 41.98C28.4316 40.62 28.7516 39.4 29.3916 38.32C30.0316 37.2267 30.8983 36.3733 31.9916 35.76C33.085 35.1467 34.285 34.84 35.5916 34.84C36.9116 34.84 38.1116 35.1467 39.1916 35.76C40.285 36.3733 41.145 37.2267 41.7716 38.32C42.4116 39.4 42.7316 40.62 42.7316 41.98C42.7316 43.3533 42.4116 44.5867 41.7716 45.68C41.145 46.76 40.285 47.6067 39.1916 48.22C38.0983 48.8333 36.8983 49.14 35.5916 49.14ZM35.5916 46.64C36.4316 46.64 37.1716 46.4533 37.8116 46.08C38.4516 45.6933 38.9516 45.1467 39.3116 44.44C39.6716 43.7333 39.8516 42.9133 39.8516 41.98C39.8516 41.0467 39.6716 40.2333 39.3116 39.54C38.9516 38.8333 38.4516 38.2933 37.8116 37.92C37.1716 37.5467 36.4316 37.36 35.5916 37.36C34.7516 37.36 34.005 37.5467 33.3516 37.92C32.7116 38.2933 32.2116 38.8333 31.8516 39.54C31.4916 40.2333 31.3116 41.0467 31.3116 41.98C31.3116 42.9133 31.4916 43.7333 31.8516 44.44C32.2116 45.1467 32.7116 45.6933 33.3516 46.08C34.005 46.4533 34.7516 46.64 35.5916 46.64ZM59.6348 35.04V49H56.8348V39.92L53.0948 49H50.9748L47.2148 39.92V49H44.4148V35.04H47.5948L52.0348 45.42L56.4748 35.04H59.6348ZM77.223 35.04V49H74.423V39.92L70.683 49H68.563L64.803 39.92V49H62.003V35.04H65.183L69.623 45.42L74.063 35.04H77.223ZM82.3913 37.3V40.8H87.0913V43.02H82.3913V46.72H87.6913V49H79.5913V35.02H87.6913V37.3H82.3913ZM97.0359 49L93.9559 43.56H92.6359V49H89.8359V35.04H95.0759C96.1559 35.04 97.0759 35.2333 97.8359 35.62C98.5959 35.9933 99.1625 36.5067 99.5359 37.16C99.9225 37.8 100.116 38.52 100.116 39.32C100.116 40.24 99.8492 41.0733 99.3159 41.82C98.7825 42.5533 97.9892 43.06 96.9359 43.34L100.276 49H97.0359ZM92.6359 41.46H94.9759C95.7359 41.46 96.3025 41.28 96.6759 40.92C97.0492 40.5467 97.2359 40.0333 97.2359 39.38C97.2359 38.74 97.0492 38.2467 96.6759 37.9C96.3025 37.54 95.7359 37.36 94.9759 37.36H92.6359V41.46ZM101.568 42C101.568 40.6267 101.875 39.4 102.488 38.32C103.115 37.2267 103.962 36.38 105.028 35.78C106.108 35.1667 107.315 34.86 108.648 34.86C110.208 34.86 111.575 35.26 112.748 36.06C113.922 36.86 114.742 37.9667 115.208 39.38H111.988C111.668 38.7133 111.215 38.2133 110.628 37.88C110.055 37.5467 109.388 37.38 108.628 37.38C107.815 37.38 107.088 37.5733 106.448 37.96C105.822 38.3333 105.328 38.8667 104.968 39.56C104.622 40.2533 104.448 41.0667 104.448 42C104.448 42.92 104.622 43.7333 104.968 44.44C105.328 45.1333 105.822 45.6733 106.448 46.06C107.088 46.4333 107.815 46.62 108.628 46.62C109.388 46.62 110.055 46.4533 110.628 46.12C111.215 45.7733 111.668 45.2667 111.988 44.6H115.208C114.742 46.0267 113.922 47.14 112.748 47.94C111.588 48.7267 110.222 49.12 108.648 49.12C107.315 49.12 106.108 48.82 105.028 48.22C103.962 47.6067 103.115 46.76 102.488 45.68C101.875 44.6 101.568 43.3733 101.568 42ZM120 37.3V40.8H124.7V43.02H120V46.72H125.3V49H117.2V35.02H125.3V37.3H120Z" fill="#262666"/>
<defs>
<clipPath id="clip0_0_873">
<rect width="32.6175" height="29.0688" fill="white" transform="translate(48)"/>
</clipPath>
</defs>
</svg>
