<svg width="70" height="69" viewBox="0 0 70 69" fill="none" xmlns="http://www.w3.org/2000/svg">
<g clip-path="url(#clip0_0_584)">
<path d="M70.0008 53.1758C69.6063 53.6935 69.2639 54.2632 68.8092 54.7221C64.6058 58.961 60.3847 63.1809 56.1676 67.4048C54.8281 68.7456 53.7598 68.7415 52.4189 67.3979C51.0507 66.0283 49.6797 64.66 48.3142 63.2877C47.087 62.055 47.0007 61.2237 47.943 59.7951C47.0829 58.7008 45.9735 58.0763 44.571 57.9681C43.2781 57.8681 42.1413 57.3668 41.2058 56.4738C40.0362 55.3562 38.8939 54.2112 37.753 53.0635C37.2216 52.5293 37.2052 51.9417 37.6599 51.5007C38.0913 51.0816 38.6981 51.1268 39.2309 51.6486C40.2731 52.669 41.3072 53.6962 42.333 54.7317C43.0343 55.4397 43.8588 55.8383 44.8573 55.9479C46.7473 56.1561 47.2952 56.4601 49.3715 58.2447C52.8545 54.7755 56.3347 51.309 59.8574 47.7986C58.8 46.7892 58.0248 45.5346 57.8728 44.0075C57.7673 42.9461 57.7865 41.8668 57.8221 40.7985C57.8687 39.3645 57.3934 38.1976 56.3456 37.2019C54.8774 35.8035 53.4831 34.3298 52.0341 32.9122C50.8548 31.759 49.188 31.5371 47.8471 32.4219C48.7442 33.2738 49.6277 34.0928 50.4864 34.9351C50.8754 35.3173 50.9124 35.7857 50.6097 36.2418C50.3152 36.6855 49.8646 36.765 49.4003 36.5951C49.1784 36.5143 48.9894 36.3143 48.8141 36.1404C47.8923 35.2282 46.9788 34.3065 45.9146 33.2395C45.9146 33.6093 45.9146 33.8162 45.9146 34.0216C45.9146 35.9815 45.8489 37.9428 45.9297 39.8986C46.0543 42.8625 43.515 44.5307 41.1894 43.7103C41.1497 43.6966 41.1004 43.7089 40.9648 43.7089C40.9648 44.3403 40.9662 44.9704 40.9648 45.6018C40.9538 48.5656 38.8871 50.1023 35.9835 49.2436C35.5959 50.5379 34.7796 51.4432 33.4702 51.8828C33.2935 51.9417 33.1593 52.1431 33.0141 52.2869C31.7418 53.5593 30.4653 54.8275 29.2025 56.1109C28.1219 57.2079 26.8467 57.8695 25.295 57.9872C23.9418 58.09 22.894 58.7583 22.0654 59.8034C22.9954 61.1566 22.9241 62.0564 21.786 63.2014C20.341 64.6559 18.892 66.1077 17.4402 67.5541C16.3212 68.6676 15.1324 68.6813 14.0312 67.5814C11.1618 64.7162 8.29932 61.8427 5.43544 58.972C5.30669 58.8433 5.16699 58.7173 5.07523 58.5639C4.81226 58.1242 4.83554 57.6873 5.19712 57.3134C5.5587 56.9395 5.99698 56.8833 6.43937 57.1518C6.64892 57.2791 6.82286 57.4709 6.99955 57.6462C9.88671 60.5238 12.7725 63.4041 15.6227 66.2461C17.2484 64.597 18.8701 62.9535 20.4506 61.351C16.0117 56.9313 11.4522 52.391 6.91463 47.874C5.39846 49.4011 3.7823 51.0282 2.10726 52.7156C2.33735 52.9553 2.62634 53.2634 2.92492 53.562C4.09184 54.733 4.28359 55.2562 3.74669 55.8123C3.18104 56.3971 2.67702 56.2163 1.45532 54.9905C1.18139 54.7166 0.90062 54.4495 0.637653 54.166C-0.195077 53.2662 -0.226579 52.0253 0.628065 51.1487C2.23326 49.4997 3.859 47.8712 5.50666 46.2647C6.37911 45.4141 7.44056 45.4648 8.6472 46.3619C9.54704 45.599 10.0839 44.6403 10.1319 43.4473C10.173 42.4242 10.1442 41.397 10.1524 40.3725C10.1647 38.7016 10.7331 37.258 11.9192 36.0692C13.4327 34.553 14.9392 33.0327 16.4609 31.5248C17.4306 30.5633 17.899 30.3483 19.9849 29.7949C19.1549 26.5722 19.6165 23.2961 19.6014 20.046C19.596 18.6873 20.3219 17.5272 21.2833 16.5562C21.9736 15.8604 22.679 15.1797 23.3528 14.4703C24.2116 13.5649 24.5978 12.4857 24.4718 11.2393C22.5941 10.7613 22.1763 10.2121 22.1763 8.25491C22.1763 6.31826 22.1722 4.38162 22.1777 2.44497C22.1818 0.869906 23.0597 0.00293577 24.6444 0.00156615C30.8406 -0.00117309 37.0381 -0.00117309 43.2343 0.00156615C44.7915 0.00156615 45.664 0.861688 45.6667 2.39566C45.6722 4.51447 45.6708 6.63328 45.6667 8.75208C45.664 10.0628 45.1147 10.7531 43.8574 11.1311C43.6876 11.1818 43.4739 11.4324 43.4602 11.605C43.3699 12.7623 43.663 13.8156 44.434 14.7113C45.4777 15.9234 45.9228 17.341 45.9187 18.9284C45.9091 22.5277 45.9064 26.1271 45.9297 29.7278C45.9324 30.0853 46.1242 30.4428 46.2502 30.8715C47.6636 30.0209 48.9853 29.6457 50.4563 29.899C51.6437 30.1045 52.6545 30.6249 53.5009 31.4659C55.0363 32.9916 56.5579 34.5297 58.0905 36.0582C59.1493 37.1128 59.7122 38.3989 59.8546 39.863C60.8859 39.8877 61.368 40.2301 61.3598 40.8957C61.3502 41.5696 60.8216 41.9421 59.9135 41.886C59.7122 43.5857 59.9313 45.1388 61.3489 46.3427C61.616 46.1756 61.8666 45.9798 62.1487 45.8483C62.9842 45.4607 63.8786 45.6319 64.5935 46.3386C66.1809 47.9082 67.7601 49.4874 69.3214 51.083C69.5981 51.3651 69.7762 51.7459 69.9994 52.0801V53.173L70.0008 53.1758ZM41.3497 11.164C41.0524 11.164 40.8059 11.164 40.5594 11.164C38.3502 11.164 36.141 11.1667 33.9304 11.1612C33.6592 11.1612 33.3757 11.1571 33.121 11.0804C32.6238 10.9311 32.3088 10.5216 32.4512 10.0477C32.5567 9.69986 32.9265 9.39443 33.247 9.16434C33.4168 9.04244 33.7332 9.11503 33.9825 9.11503C36.9203 9.11229 39.8595 9.11503 42.7973 9.11092C43.0589 9.11092 43.3219 9.08079 43.5753 9.06572V2.09572H24.2636V9.07394C24.5307 9.08901 24.7731 9.11229 25.0169 9.11366C26.1332 9.11777 27.2494 9.10955 28.3656 9.11777C29.1696 9.12462 29.6421 9.50537 29.6476 10.1244C29.6517 10.7421 29.1682 11.1462 28.3807 11.1612C27.7959 11.1722 27.2097 11.164 26.6016 11.164C26.5783 11.3544 26.5523 11.4626 26.5523 11.5708C26.5577 13.4608 25.7935 15.003 24.4444 16.2918C23.8514 16.8575 23.2816 17.4478 22.7064 18.0326C22.0791 18.6709 21.634 19.4283 21.6216 20.3254C21.586 22.7852 21.571 25.2464 21.6244 27.7049C21.6531 29.0512 22.779 30.3236 24.05 30.5565C24.0637 30.3099 24.0883 30.073 24.0897 29.836C24.0965 28.88 24.0691 27.9213 24.1061 26.9667C24.1308 26.3257 24.5814 25.9381 25.1676 25.96C25.7278 25.9806 26.0976 26.3654 26.1359 26.9831C26.1482 27.1872 26.1414 27.3926 26.1414 27.5981C26.1414 33.5655 26.1414 39.5343 26.1441 45.5018C26.1441 45.7962 26.1469 46.0989 26.2153 46.3811C26.3906 47.1083 26.9988 47.5206 27.7397 47.4576C28.4328 47.3987 28.9423 46.8933 29.0135 46.1701C29.0409 45.899 29.034 45.6237 29.034 45.3511C29.034 40.0205 29.034 34.6913 29.0354 29.3608C29.0354 28.4418 29.3929 27.9487 30.0475 27.9323C30.7091 27.9158 31.0761 28.4075 31.0843 29.3197C31.0857 29.5019 31.0843 29.684 31.0843 29.8662C31.0843 35.8802 31.0843 41.8928 31.0871 47.9068C31.0871 48.2232 31.0953 48.5492 31.1665 48.8546C31.3199 49.5202 31.8842 49.9257 32.569 49.9147C33.247 49.9024 33.7948 49.4682 33.9263 48.7971C33.9825 48.5095 33.9879 48.2081 33.9879 47.9137C33.9797 43.335 33.966 38.7578 33.9551 34.1791C33.951 32.5164 33.9441 30.8537 33.9606 29.1909C33.9674 28.4103 34.3934 27.9446 35.0261 27.9514C35.6329 27.9583 36.0081 28.4048 36.0383 29.1649C36.0451 29.3471 36.041 29.5292 36.041 29.7114C36.041 34.9735 36.041 40.2356 36.041 45.4977C36.041 45.725 36.03 45.9551 36.0506 46.1811C36.115 46.8906 36.6382 47.4083 37.3312 47.4603C38.0735 47.5165 38.694 47.0851 38.8433 46.3701C38.9076 46.0619 38.9104 45.7373 38.9104 45.4196C38.9145 40.1575 38.9131 34.8954 38.9145 29.6333C38.9145 29.3608 38.9076 29.0841 38.946 28.8157C39.0227 28.2938 39.3555 28.0062 39.8718 27.9802C40.4183 27.9528 40.795 28.2213 40.91 28.7664C40.9662 29.0307 40.9607 29.3087 40.9607 29.5813C40.9634 32.9985 40.9607 36.4143 40.9648 39.8315C40.9648 40.1041 40.9621 40.3808 41.0004 40.6492C41.0976 41.3244 41.625 41.7997 42.292 41.8421C42.9781 41.886 43.5643 41.5134 43.7547 40.8615C43.8355 40.5835 43.8561 40.2794 43.8574 39.9863C43.8629 32.9478 43.8588 25.9093 43.8643 18.8708C43.8643 17.8039 43.5726 16.8548 42.8699 16.0398C42.1235 15.1742 41.651 14.1703 41.4716 13.0486C41.3784 12.4692 41.3894 11.8734 41.3456 11.1654L41.3497 11.164ZM20.6451 58.3036C21.9243 56.7601 23.624 56.0355 25.625 55.8616C26.1359 55.8178 26.7262 55.5616 27.0933 55.2083C28.3341 54.0167 29.4915 52.7375 30.5995 51.576C30.0763 50.8597 29.512 50.0859 28.9258 49.2833C26.1866 50.1242 24.0911 48.5601 24.0897 45.5566C24.0883 41.7531 24.0897 37.9497 24.0897 34.1462V33.4327C24.0335 33.4066 23.9774 33.3806 23.9226 33.3546C23.1186 34.1805 22.316 35.0064 21.5121 35.8309C21.3367 36.0103 21.1655 36.1938 20.9765 36.3582C20.4999 36.7718 19.8959 36.7745 19.5042 36.3746C19.1002 35.9624 19.0933 35.3748 19.5494 34.9091C20.389 34.0531 21.2559 33.2258 22.1325 32.3657C20.7245 31.544 19.1481 31.7617 17.9716 32.9163C16.4116 34.4476 14.8776 36.0076 13.3327 37.5539C12.5684 38.3195 12.2123 39.2536 12.2014 40.3232C12.1904 41.3258 12.2041 42.327 12.189 43.3295C12.1658 44.8759 11.6015 46.2099 10.5674 47.3508C10.4181 47.5151 10.2743 47.6863 10.1401 47.8411C13.6367 51.324 17.1032 54.7755 20.6437 58.3023L20.6451 58.3036ZM54.2625 66.1831C58.8 61.666 63.3444 57.1422 67.8477 52.6608C66.2329 51.0556 64.5949 49.4271 63.0691 47.9096C58.5576 52.3964 53.9981 56.9313 49.4784 61.425C51.0685 63.0055 52.6942 64.6231 54.2625 66.1831Z" fill="#1780B2"/>
<path d="M17.092 61.6495C17.1084 62.2467 16.6345 62.7411 16.0332 62.7548C15.4292 62.7685 14.9348 62.3042 14.9184 61.7057C14.9019 61.125 15.3964 60.6018 15.9771 60.584C16.5523 60.5662 17.0769 61.0674 17.092 61.6495Z" fill="#1780B2"/>
<path d="M57.1425 20.4253C57.1343 20.9622 56.67 21.4333 56.1386 21.4402C55.5771 21.4484 55.0936 20.9622 55.0977 20.3938C55.1032 19.8158 55.5784 19.3693 56.1632 19.3967C56.707 19.4214 57.1494 19.887 57.1412 20.4253H57.1425Z" fill="#1780B2"/>
<path d="M9.68819 24.3546C9.13624 24.3587 8.67604 23.9259 8.65687 23.3849C8.63632 22.8357 9.13076 22.318 9.67998 22.3125C10.2196 22.3084 10.6757 22.7522 10.6949 23.3014C10.714 23.8944 10.2799 24.3505 9.68956 24.3546H9.68819Z" fill="#1780B2"/>
<path d="M32.6238 61.6794C33.1949 61.6794 33.6578 62.1574 33.6442 62.7341C33.6305 63.2888 33.1935 63.7133 32.6347 63.7147C32.0609 63.7147 31.5842 63.2353 31.602 62.6752C31.6199 62.1424 32.0937 61.6822 32.6238 61.6808V61.6794Z" fill="#1780B2"/>
<path d="M17.5792 15.0235C17.0231 15.018 16.5465 14.5222 16.5629 13.9689C16.5807 13.4046 17.0628 12.9594 17.6353 12.9786C18.1818 12.9978 18.6078 13.4388 18.6091 13.9853C18.6091 14.5482 18.1325 15.0289 17.5792 15.0235Z" fill="#1780B2"/>
<path d="M8.02598 28.1608C7.44937 28.1238 7.03712 27.628 7.09053 27.0377C7.14121 26.4871 7.61784 26.0749 8.16158 26.1146C8.70395 26.1529 9.13401 26.6323 9.11209 27.1719C9.09018 27.7458 8.59438 28.1964 8.02461 28.1608H8.02598Z" fill="#1780B2"/>
<path d="M58.2747 23.1041C58.8417 23.1191 59.3006 23.6163 59.2732 24.1875C59.2458 24.7353 58.7815 25.1667 58.2336 25.1503C57.6584 25.1339 57.216 24.6518 57.2434 24.0697C57.2694 23.515 57.7241 23.0904 58.2747 23.1041Z" fill="#1780B2"/>
<path d="M11.8208 20.8703C11.2894 20.8675 10.8237 20.4046 10.8127 19.865C10.8004 19.2952 11.2716 18.824 11.8468 18.8282C12.4001 18.8323 12.8466 19.2705 12.8562 19.817C12.8658 20.3772 12.3782 20.8716 11.8194 20.8689L11.8208 20.8703Z" fill="#1780B2"/>
<path d="M37.7376 62.574C37.7376 63.1492 37.2637 63.5985 36.6762 63.5807C36.1215 63.5642 35.69 63.1191 35.6914 62.5685C35.6941 62.0001 36.1872 61.5235 36.7488 61.5454C37.2884 61.5673 37.7376 62.0344 37.7363 62.5726L37.7376 62.574Z" fill="#1780B2"/>
<path d="M50.2555 15.2096C49.6734 15.2179 49.2105 14.7563 49.2187 14.1783C49.2269 13.6277 49.6734 13.1785 50.2186 13.1716C50.776 13.1648 51.2718 13.6592 51.2636 14.2153C51.2567 14.759 50.8061 15.2014 50.2542 15.2083L50.2555 15.2096Z" fill="#1780B2"/>
<path d="M60.6064 33.3584C60.038 33.3461 59.5915 32.8708 59.612 32.2983C59.6312 31.756 60.0777 31.3177 60.6159 31.3108C61.1761 31.3054 61.6514 31.7792 61.6514 32.3435C61.6514 32.9078 61.1734 33.3707 60.6064 33.3584Z" fill="#1780B2"/>
<path d="M7.96633 39.3588C7.95401 39.9258 7.53216 40.3422 6.96788 40.3435C6.38442 40.3463 5.92149 39.8779 5.93792 39.304C5.95299 38.7712 6.42551 38.3056 6.95418 38.3001C7.51847 38.296 7.97866 38.7767 7.96633 39.3588Z" fill="#1780B2"/>
<path d="M8.84678 43.3581C8.84678 43.8896 8.38522 44.3703 7.85791 44.3895C7.295 44.41 6.81974 43.9375 6.81837 43.3554C6.81563 42.7582 7.25939 42.3282 7.85928 42.346C8.40987 42.3624 8.84815 42.8117 8.84815 43.3581H8.84678Z" fill="#1780B2"/>
<path d="M60.7934 28.1717C60.7756 28.7442 60.2839 29.1839 59.7018 29.1483C59.1403 29.114 58.7472 28.6771 58.7623 28.1019C58.776 27.5499 59.2252 27.1062 59.7689 27.1075C60.3264 27.1075 60.8112 27.6116 60.7934 28.1717Z" fill="#1780B2"/>
<path d="M44.6291 59.4649C45.1701 59.4827 45.6221 59.9456 45.6221 60.4825C45.6221 61.0399 45.1208 61.522 44.5579 61.5056C43.9854 61.4892 43.5485 61.0002 43.5841 60.4154C43.617 59.8648 44.0772 59.4471 44.6278 59.4649H44.6291Z" fill="#1780B2"/>
<path d="M54.4329 17.0833C54.4301 17.6489 54.0124 18.0708 53.4454 18.0804C52.8729 18.09 52.3853 17.6161 52.3908 17.0559C52.3963 16.5272 52.8674 16.052 53.3974 16.041C53.9658 16.0287 54.4356 16.5012 54.4329 17.0819V17.0833Z" fill="#1780B2"/>
<path d="M41.7413 61.8151C41.7481 62.3931 41.2811 62.8656 40.7099 62.856C40.1813 62.8478 39.7129 62.378 39.7033 61.8453C39.6937 61.2741 40.1648 60.8126 40.7497 60.8194C41.3126 60.8276 41.7344 61.2495 41.7413 61.8138V61.8151Z" fill="#1780B2"/>
<path d="M8.10405 31.1096C8.11364 31.7054 7.67125 32.1519 7.08095 32.1423C6.52488 32.1341 6.08249 31.6971 6.07427 31.1479C6.06605 30.585 6.55775 30.0878 7.11245 30.0974C7.65345 30.107 8.09583 30.559 8.10405 31.1096Z" fill="#1780B2"/>
<path d="M6.69812 34.1954C7.2309 34.1804 7.70616 34.6241 7.73903 35.1665C7.77464 35.7486 7.335 36.2266 6.75017 36.2403C6.18177 36.254 5.74897 35.8527 5.72021 35.2857C5.69008 34.7008 6.12973 34.2105 6.69812 34.1954Z" fill="#1780B2"/>
<path d="M24.6216 62.174C24.0614 62.1658 23.6026 61.6714 23.6258 61.0989C23.6478 60.5359 24.0819 60.1264 24.6448 60.1346C25.2269 60.1442 25.6803 60.6195 25.6515 61.192C25.6255 61.7303 25.1516 62.1809 24.6216 62.1726V62.174Z" fill="#1780B2"/>
<path d="M29.5807 62.2561C29.5698 62.8026 29.1164 63.2545 28.5782 63.2573C28.0166 63.26 27.5263 62.7628 27.5414 62.2068C27.5564 61.6535 27.9988 61.2261 28.5576 61.2234C29.1575 61.222 29.5944 61.6603 29.5821 62.2561H29.5807Z" fill="#1780B2"/>
<path d="M46.6164 10.8364C47.1725 10.8296 47.6642 11.3213 47.6587 11.8801C47.6546 12.4279 47.2136 12.8635 46.6562 12.8717C46.0631 12.8799 45.618 12.4389 45.6248 11.8472C45.6317 11.3007 46.0796 10.8447 46.6151 10.8364H46.6164Z" fill="#1780B2"/>
<path d="M14.5153 17.7215C13.9811 17.7393 13.5031 17.2997 13.4689 16.7587C13.4332 16.1889 13.8839 15.7041 14.4632 15.6876C15.0343 15.6726 15.4699 16.0711 15.4973 16.6354C15.526 17.2134 15.0823 17.7037 14.5139 17.7215H14.5153Z" fill="#1780B2"/>
<path d="M61.8211 36.5977C61.8334 37.1962 61.3979 37.6427 60.8062 37.6386C60.2597 37.6345 59.805 37.1921 59.7913 36.6497C59.7776 36.0854 60.257 35.5979 60.8226 35.6006C61.3746 35.6033 61.8074 36.0361 61.8197 36.5977H61.8211Z" fill="#1780B2"/>
<path d="M22.0765 11.7745C22.0792 12.347 21.6026 12.8209 21.0397 12.8045C20.5001 12.7894 20.0563 12.3333 20.0508 11.791C20.0454 11.2061 20.496 10.7665 21.0904 10.7788C21.6547 10.7898 22.0724 11.2116 22.0765 11.7745Z" fill="#1780B2"/>
<path d="M27.5828 6.67279C26.9925 6.66457 26.5159 6.16603 26.5214 5.56477C26.5268 4.95665 27.0021 4.49372 27.6116 4.50194C28.2115 4.51016 28.6991 5.00322 28.6895 5.59216C28.6799 6.17014 28.1567 6.68101 27.5828 6.67279Z" fill="#1780B2"/>
<path d="M64.4265 52.3155C64.4237 52.9223 63.9458 53.4071 63.3541 53.4058C62.772 53.4058 62.2721 52.899 62.2734 52.3114C62.2734 51.7129 62.7528 51.2376 63.3582 51.239C63.9704 51.239 64.4306 51.7033 64.4279 52.3155H64.4265Z" fill="#1780B2"/>
</g>
<defs>
<clipPath id="clip0_0_584">
<rect width="70" height="68.4071" fill="white"/>
</clipPath>
</defs>
</svg>
