<svg width="70" height="70" viewBox="0 0 70 70" fill="none" xmlns="http://www.w3.org/2000/svg">
<g clip-path="url(#clip0_0_577)">
<path d="M36.6396 0.000117452C37.9747 0.259471 39.3372 0.42933 40.6431 0.792791C49.2639 3.18542 55.3587 10.7067 55.9487 19.6124C56.5624 28.9053 51.0502 37.4384 42.3289 40.6913C42.1591 40.7552 41.9892 40.8301 41.8139 40.8685C41.1546 41.0127 40.603 40.7077 40.3984 40.1032C40.2085 39.5388 40.455 38.9799 41.0468 38.6968C41.3737 38.5398 41.7408 38.4594 42.0568 38.2841C43.4613 37.4969 44.8604 36.6951 46.2448 35.8732C46.4293 35.7636 46.6211 35.506 46.6375 35.3033C46.9553 31.013 44.7599 27.8551 41.644 26.3428C41.2349 26.1437 40.9372 26.1492 40.5263 26.3921C36.8496 28.5656 33.1475 28.5692 29.4727 26.3903C29.0562 26.1437 28.7512 26.1419 28.3567 26.3465C25.1897 27.9848 23.5404 30.5692 23.3249 34.1399C23.2591 35.2357 23.5568 35.959 24.5248 36.4467C25.8216 37.1005 27.1019 37.7854 28.3914 38.4539C28.512 38.516 28.6453 38.5525 28.7713 38.6055C29.5238 38.9233 29.8398 39.5242 29.5932 40.1635C29.343 40.81 28.7165 41.0548 27.9476 40.7844C25.3157 39.8566 22.9578 38.4576 20.903 36.5727C9.63208 26.2351 12.6201 7.96521 26.5924 1.76628C28.5832 0.884113 30.6653 0.330702 32.8351 0.120662C33.0123 0.104224 33.184 0.0402991 33.3593 -0.00170898C34.4534 -0.00170898 35.5474 -0.00170898 36.6396 -0.00170898V0.000117452ZM48.9735 33.2668C55.2619 26.4378 55.6656 14.387 47.3352 6.96797C39.3226 -0.167915 26.7038 1.06493 20.1816 9.62179C13.8311 17.954 16.2383 28.4816 21.0345 33.1828C21.5368 29.2523 23.5203 26.3136 27.0234 24.3429C25.1878 22.0708 24.2929 19.5266 24.5303 16.6499C24.7696 13.7441 26.0244 11.3295 28.2471 9.43914C31.995 6.25201 37.5437 6.14973 41.4376 9.19075C43.3919 10.7176 44.6796 12.6975 45.2202 15.1157C45.9855 18.5311 45.1599 21.5996 42.9719 24.3465C46.4859 26.3191 48.4585 29.2633 48.9753 33.2668H48.9735ZM34.9666 9.32225C30.4772 9.34599 26.7933 13.0664 26.8225 17.5467C26.8536 22.0014 30.5448 25.6743 34.9976 25.6762C39.4761 25.678 43.1855 21.9612 43.1746 17.4828C43.1636 12.997 39.4432 9.30033 34.9666 9.32225Z" fill="#1780B2"/>
<path d="M0 44.8427C0.467568 43.7212 1.37348 43.3267 2.52231 43.197C4.33231 42.9925 6.12952 42.6875 7.93404 42.45C8.36325 42.3934 8.60069 42.2217 8.79429 41.8217C9.64358 40.0592 10.5477 38.3241 11.4061 36.5652C11.8225 35.7141 12.4344 35.1625 13.406 35.1607C14.3722 35.1589 15.006 35.6922 15.4224 36.5451C16.2918 38.3241 17.1886 40.0884 18.0561 41.8674C18.2205 42.2034 18.405 42.3733 18.8086 42.4263C20.8159 42.6911 22.8195 42.9925 24.8194 43.3011C25.7016 43.4363 26.1016 43.9258 25.9957 44.66C25.8952 45.3595 25.2943 45.7139 24.4487 45.5915C22.33 45.2865 20.215 44.9614 18.0909 44.702C17.1685 44.5906 16.5713 44.2326 16.1676 43.345C15.3329 41.5058 14.385 39.7158 13.4334 37.8054C13.2818 38.0794 13.1704 38.2675 13.0736 38.4611C12.2061 40.1907 11.333 41.9149 10.4819 43.6518C10.2098 44.2089 9.83171 44.5285 9.19063 44.6143C7.1158 44.892 5.04462 45.2098 2.97344 45.5148C2.89307 45.5257 2.81454 45.5477 2.73783 45.5641C3.26019 46.112 3.74419 46.649 4.25742 47.1549C5.29667 48.1777 6.34687 49.1877 7.40072 50.1978C7.81167 50.5923 7.95778 51.0324 7.85185 51.6133C7.46465 53.7374 7.1158 55.867 6.72859 58.1336C7.03909 57.9802 7.24913 57.8798 7.45734 57.772C9.17236 56.8789 10.8947 55.9985 12.5988 55.0835C13.154 54.7858 13.6471 54.7693 14.2078 55.067C16.237 56.1446 18.2826 57.193 20.3173 58.2615C21.0789 58.6615 21.3255 59.3099 20.9894 59.9418C20.6606 60.5591 19.9867 60.7089 19.2178 60.3126C17.4589 59.403 15.7019 58.4916 13.9558 57.5583C13.5796 57.3574 13.2873 57.3373 12.8946 57.5492C11.1723 58.4788 9.42258 59.3555 7.69478 60.276C6.84366 60.729 6.0108 60.8459 5.18891 60.2596C4.36336 59.6678 4.21907 58.8277 4.38345 57.8852C4.71768 55.9803 5.02087 54.068 5.38799 52.1703C5.47566 51.7174 5.35694 51.4598 5.04827 51.1676C3.75698 49.9457 2.47117 48.7202 1.21641 47.4599C0.765277 47.0015 0.403642 46.4463 0 45.9367C0 45.5714 0 45.2079 0 44.8427Z" fill="#1780B2"/>
<path d="M23.9775 67.6932C24.3117 65.7407 24.6222 63.9253 24.9363 62.1098C25.0879 61.2349 25.2888 60.3674 25.382 59.487C25.413 59.1857 25.2779 58.7638 25.0642 58.5537C23.2834 56.7912 21.4789 55.0524 19.6543 53.3356C18.8726 52.5995 18.4707 51.7576 18.7849 50.7092C19.1009 49.6572 19.8935 49.175 20.9675 49.0307C23.4259 48.7019 25.8769 48.3202 28.3353 47.986C28.8723 47.9129 29.2138 47.7303 29.4677 47.2024C30.5417 44.9687 31.685 42.7678 32.7754 40.5414C33.2357 39.6044 33.9023 38.9889 34.9762 38.9761C36.0831 38.9634 36.7753 39.577 37.2447 40.5414C38.3314 42.7697 39.4675 44.9742 40.5396 47.2097C40.7788 47.7065 41.082 47.9093 41.6062 47.9805C44.1541 48.3257 46.6983 48.7056 49.2444 49.0672C50.2142 49.2042 50.9009 49.7192 51.2096 50.6398C51.5256 51.5877 51.279 52.437 50.5576 53.1347C48.6891 54.9392 46.828 56.7492 44.9413 58.5336C44.6144 58.8423 44.5486 59.1272 44.6253 59.551C45.071 61.9911 45.4837 64.4367 45.9148 66.8786C46.0974 67.9106 45.9714 68.8493 45.0728 69.5178C44.1577 70.1991 43.2208 70.0804 42.2546 69.5671C40.0245 68.3818 37.7744 67.2348 35.5443 66.0512C35.1589 65.8467 34.8612 65.8485 34.4758 66.0512C32.1635 67.275 29.844 68.4841 27.5153 69.6749C26.2751 70.3087 24.9363 69.9416 24.33 68.8C24.1345 68.4311 24.0688 67.9927 23.9756 67.6914L23.9775 67.6932ZM43.608 67.622C43.5879 67.3425 43.5915 67.1672 43.5623 66.9992C43.1167 64.3983 42.6948 61.7938 42.198 59.2039C42.0446 58.404 42.2564 57.867 42.8263 57.3318C44.7002 55.5675 46.5376 53.7685 48.4006 51.9913C48.5759 51.8251 48.8206 51.7338 49.0343 51.6078C48.7531 51.3703 48.649 51.3247 48.5394 51.3083C45.8819 50.9284 43.2281 50.5265 40.567 50.185C39.7177 50.0754 39.1771 49.743 38.7972 48.9394C37.6976 46.6161 36.5232 44.3294 35.3762 42.03C35.274 41.8236 35.1571 41.6245 34.9963 41.3286C33.6703 43.9824 32.3937 46.4956 31.1608 49.0307C30.8266 49.7192 30.359 50.0663 29.6047 50.1612C27.5974 50.4188 25.5938 50.7183 23.5902 51.0051C22.7757 51.122 21.9629 51.2535 20.9273 51.4124C21.2871 51.7064 21.4898 51.8525 21.6688 52.0242C23.5574 53.8379 25.4349 55.6625 27.3326 57.467C27.7874 57.8999 27.9792 58.3693 27.8605 58.9902C27.6468 60.1062 27.455 61.2276 27.2614 62.3491C26.9637 64.0696 26.6714 65.7901 26.3573 67.6275C26.6532 67.4868 26.8523 67.3973 27.0459 67.2969C29.3874 66.0823 31.7398 64.8878 34.063 63.6403C34.7443 63.2751 35.3141 63.2787 35.979 63.6458C37.3342 64.391 38.7186 65.0814 40.0903 65.7937C41.2354 66.3873 42.3806 66.9809 43.6116 67.6202L43.608 67.622Z" fill="#1780B2"/>
<path d="M63.2604 58.1117C62.8805 55.8871 62.55 53.7977 62.1536 51.7228C62.0203 51.027 62.2157 50.5466 62.7052 50.0845C64.0787 48.7859 65.4284 47.4599 66.7928 46.1522C66.9553 45.997 67.1562 45.8837 67.3389 45.7504C67.3097 45.6846 67.2804 45.6171 67.2512 45.5513C65.9636 45.3614 64.6759 45.1732 63.3901 44.9851C62.5354 44.8591 61.6806 44.7093 60.8222 44.6198C60.1829 44.5522 59.7957 44.2326 59.5217 43.6701C58.6724 41.9331 57.8012 40.2072 56.9355 38.4775C56.8369 38.2821 56.7236 38.094 56.5684 37.8145C55.5985 39.756 54.6488 41.5879 53.7685 43.4527C53.4196 44.1943 52.9374 44.5596 52.1228 44.6618C49.8873 44.9431 47.6609 45.292 45.429 45.6043C44.6911 45.7084 44.1048 45.3047 44.0116 44.6545C43.913 43.9568 44.2856 43.4363 45.0509 43.3176C47.0983 42.9998 49.1512 42.7295 51.195 42.3952C51.4671 42.3514 51.7996 42.0975 51.9274 41.8491C52.8297 40.114 53.6991 38.3588 54.5538 36.5999C54.9776 35.7269 55.5985 35.1534 56.6013 35.1571C57.6076 35.1607 58.2122 35.7561 58.6341 36.6237C59.4797 38.3625 60.371 40.0793 61.2075 41.8217C61.3993 42.2217 61.6349 42.3843 62.0678 42.4427C64.075 42.713 66.0768 43.0272 68.0841 43.3121C68.9808 43.4399 69.6 43.8966 69.8868 44.7641C70.1753 45.639 69.9178 46.3787 69.2786 46.9997C67.8412 48.3969 66.4037 49.7941 64.9499 51.1749C64.6412 51.4671 64.5243 51.7265 64.6102 52.1776C64.9755 54.0771 65.2914 55.9857 65.6074 57.8944C65.8485 59.3573 65.2147 60.4422 63.9271 60.6084C63.4267 60.6724 62.8367 60.519 62.3728 60.2907C60.6176 59.4286 58.8898 58.5062 57.1656 57.582C56.7675 57.3683 56.4551 57.3464 56.0424 57.5693C54.3803 58.466 52.6963 59.3226 51.0215 60.192C50.8809 60.2651 50.7439 60.3491 50.5978 60.413C49.9512 60.6998 49.3047 60.508 49.0069 59.9455C48.7019 59.3665 48.8718 58.709 49.5056 58.3711C51.6735 57.2149 53.8452 56.0661 56.0515 54.983C56.3876 54.8186 56.9629 54.9008 57.3264 55.078C59.0834 55.9346 60.8075 56.8643 62.5427 57.7665C62.7417 57.8706 62.9463 57.9619 63.2641 58.1172L63.2604 58.1117Z" fill="#1780B2"/>
<path d="M28.8425 54.9739C27.9859 54.9739 27.5129 54.5812 27.449 53.953C27.3814 53.2881 27.7704 52.7731 28.4791 52.6598C29.5329 52.4918 30.5904 52.3402 31.6516 52.2197C32.0625 52.1722 32.2908 51.995 32.4662 51.6261C32.921 50.6599 33.4031 49.7083 33.8926 48.7604C34.2689 48.0316 34.8899 47.7869 35.5145 48.0974C36.1355 48.4061 36.3327 49.0599 35.9784 49.7887C35.352 51.0745 34.7273 52.3621 34.0442 53.6187C33.8798 53.9201 33.5127 54.2452 33.1913 54.3055C31.6973 54.5849 30.1868 54.7767 28.8444 54.9758L28.8425 54.9739Z" fill="#1780B2"/>
</g>
<defs>
<clipPath id="clip0_0_577">
<rect width="70" height="69.989" fill="white"/>
</clipPath>
</defs>
</svg>
