<svg width="70" height="61" viewBox="0 0 70 61" fill="none" xmlns="http://www.w3.org/2000/svg">
<g clip-path="url(#clip0_0_556)">
<path d="M0 4.41744C0.0547617 4.24768 0.11865 4.07975 0.164285 3.90816C0.773965 1.6392 2.77094 0.054766 5.12204 0.0401629C8.49171 0.0182583 11.8632 0.0328614 15.2329 0.0328614C31.5847 0.0328614 47.9347 0.0711945 64.2865 4.39365e-06C67.585 -0.0145987 70.0219 2.41682 69.9982 5.72625C69.9197 16.841 69.969 27.9558 69.969 39.0706C69.969 39.0925 69.969 39.1163 69.969 39.1382C69.969 40.2352 69.5984 40.7737 68.8573 40.7591C68.1381 40.7463 67.784 40.2206 67.784 39.1692C67.784 31.7672 67.784 24.3635 67.784 16.9615C67.784 13.1574 67.784 9.3533 67.784 5.55101C67.784 3.41531 66.581 2.21785 64.438 2.21785C44.8078 2.21785 25.1776 2.21785 5.54736 2.21785C3.36784 2.21785 2.18864 3.40618 2.18864 5.60577C2.18864 17.7227 2.18864 29.8396 2.18864 41.9584C2.18864 44.2237 3.37332 45.4065 5.6441 45.4084C7.23767 45.4102 8.83305 45.4084 10.4266 45.4084C11.677 45.4084 11.9727 45.7077 12.0111 46.9855C12.1042 50.1726 12.2009 53.3598 12.2958 56.5469C12.2995 56.6765 12.3122 56.8079 12.3305 57.1073C13.0187 56.3297 13.5809 55.6287 14.2198 55.0063C14.4863 54.7471 14.9152 54.5043 15.2657 54.5134C16.1456 54.5335 16.5544 55.5886 15.9557 56.2932C14.6999 57.7663 13.4239 59.2229 12.0932 60.6285C11.8559 60.8785 11.3046 60.9771 10.9323 60.9205C10.4467 60.8475 10.2295 60.3985 10.2149 59.8873C10.14 57.4066 10.0415 54.9259 9.9867 52.4434C9.95202 50.8553 9.9794 49.2654 9.9794 47.597C8.31099 47.597 6.83791 47.6007 5.36482 47.597C3.72927 47.5915 2.28174 47.0567 1.28325 45.7515C0.717378 45.0159 0.418014 44.0795 0 43.2343C0 30.296 0 17.3558 0 4.41744Z" fill="#1780B2"/>
<path d="M17.4539 51.5562C17.735 50.2803 18.0197 48.8766 18.3666 47.4875C18.4797 47.0384 18.3793 46.7847 18.0398 46.4981C17.0468 45.6639 16.0921 44.7841 15.1101 43.9371C14.6921 43.5756 14.4657 43.1558 14.6428 42.6155C14.8217 42.0679 15.2634 41.8963 15.811 41.8525C17.149 41.7448 18.4852 41.6188 19.8159 41.4509C20.0459 41.4217 20.3435 41.2008 20.4402 40.9891C21.0043 39.7734 21.5245 38.5376 22.0447 37.3018C22.2565 36.798 22.5796 36.4329 23.1491 36.4366C23.7186 36.4402 24.0344 36.8071 24.2461 37.3109C24.7646 38.5467 25.2884 39.7825 25.8543 40.9982C25.9511 41.2063 26.2522 41.418 26.4822 41.4472C27.8367 41.6152 29.1966 41.7375 30.5565 41.8561C31.0822 41.9018 31.4856 42.1099 31.6554 42.6228C31.8252 43.1357 31.6262 43.5519 31.2319 43.8969C30.2371 44.764 29.2623 45.6548 28.2492 46.5017C27.9006 46.7938 27.8184 47.0731 27.9225 47.5021C28.2255 48.7378 28.4847 49.9846 28.7731 51.224C28.8991 51.768 28.9064 52.2791 28.4007 52.6387C27.9006 52.9946 27.4187 52.834 26.9386 52.5456C25.8288 51.8775 24.6988 51.2405 23.6 50.5541C23.255 50.3405 23.014 50.3643 22.6818 50.5669C21.519 51.2806 20.3453 51.9779 19.157 52.6478C18.2826 53.1407 17.4155 52.6332 17.4484 51.5581L17.4539 51.5562ZM18.2954 43.8239C18.9817 44.4281 19.5257 44.9447 20.1098 45.4102C20.6939 45.8775 20.8947 46.4068 20.6812 47.1461C20.4731 47.8671 20.3581 48.6155 20.1701 49.51C20.9148 49.0737 21.5281 48.7707 22.0776 48.3764C22.8077 47.8544 23.4704 47.8471 24.206 48.3636C24.781 48.7671 25.4144 49.0865 26.1409 49.5136C25.9547 48.6539 25.8525 47.9529 25.6444 47.2848C25.3852 46.4488 25.6006 45.841 26.2869 45.3171C26.8491 44.8881 27.3566 44.3861 28.001 43.8166C27.0609 43.729 26.318 43.6377 25.5732 43.5975C24.8248 43.5574 24.3593 43.2179 24.0983 42.5078C23.8354 41.7941 23.4996 41.1077 23.1473 40.2991C22.7731 41.1588 22.4354 41.9018 22.1287 42.6575C21.8987 43.2233 21.5172 43.5245 20.8984 43.5702C20.0861 43.6304 19.2756 43.7272 18.2954 43.8239Z" fill="#1780B2"/>
<path d="M61.6707 36.4165C61.8661 36.6264 62.2676 36.9039 62.452 37.2854C63.0361 38.492 63.5491 39.7332 64.0675 40.969C64.2044 41.2976 64.3668 41.4509 64.752 41.4783C66.1137 41.575 67.47 41.7339 68.8299 41.8562C69.3593 41.9036 69.8357 42.1281 69.8832 42.6484C69.9197 43.039 69.759 43.572 69.4871 43.8422C68.5853 44.7403 67.6124 45.569 66.6285 46.3795C66.1868 46.7445 66.048 47.0822 66.205 47.6572C66.5318 48.8638 66.7599 50.0941 67.0429 51.3135C67.1615 51.8209 67.1141 52.2773 66.6833 52.6095C66.2251 52.9636 65.7505 52.8742 65.2832 52.5967C64.1295 51.9104 62.985 51.2094 61.8113 50.5614C61.5941 50.441 61.1961 50.4428 60.9771 50.5614C59.8216 51.1967 58.6917 51.8794 57.5618 52.5621C57.1 52.8413 56.6363 52.9709 56.1581 52.6533C55.6415 52.3102 55.6305 51.8027 55.7565 51.2533C56.0504 49.9682 56.3132 48.674 56.629 47.3944C56.7203 47.0257 56.6491 46.8121 56.3698 46.5748C55.3841 45.7315 54.4258 44.8553 53.4401 44.0101C52.9929 43.6268 52.6771 43.2051 52.8943 42.5918C53.0987 42.0113 53.5843 41.8872 54.1465 41.8434C55.4389 41.743 56.7312 41.6189 58.0163 41.4509C58.2646 41.4181 58.5877 41.1881 58.6935 40.9617C59.2612 39.7478 59.7778 38.5084 60.3017 37.2744C60.5153 36.7688 60.853 36.4493 61.6707 36.4128V36.4165ZM66.2342 43.8257C65.2284 43.7235 64.3979 43.6286 63.5655 43.5574C63.0015 43.51 62.6546 43.2197 62.4411 42.7086C62.1216 41.9438 61.7803 41.1881 61.3951 40.3046C61.0355 41.126 60.6942 41.816 60.4295 42.5334C60.1758 43.2179 59.7304 43.5483 59.0093 43.5939C58.2335 43.6432 57.4614 43.74 56.5542 43.8276C57.1493 44.3551 57.5855 44.8297 58.1039 45.1875C58.9947 45.8008 59.1791 46.5584 58.845 47.5532C58.6516 48.1282 58.5822 48.747 58.4234 49.5082C59.201 49.0518 59.8289 48.7324 60.4021 48.3326C61.0976 47.8453 61.7255 47.8781 62.4119 48.3418C63.0106 48.747 63.6568 49.0847 64.3833 49.5118C64.2062 48.6977 64.0949 47.9803 63.8904 47.2922C63.6422 46.4634 63.8375 45.8464 64.5293 45.3226C65.0861 44.8991 65.5862 44.4007 66.236 43.8257H66.2342Z" fill="#1780B2"/>
<path d="M42.2851 36.1573C42.7269 36.6191 43.1376 36.8893 43.3219 37.269C43.9079 38.4737 44.4227 39.715 44.9356 40.9526C45.0853 41.314 45.2788 41.4546 45.6785 41.482C47.0165 41.5787 48.3509 41.7375 49.6871 41.8562C50.2146 41.9036 50.6126 42.1172 50.7823 42.6283C50.9557 43.1467 50.7422 43.5556 50.3515 43.8988C49.3585 44.7677 48.3819 45.6566 47.3688 46.5036C47.0184 46.7975 46.9472 47.0841 47.0494 47.5076C47.3415 48.7233 47.5879 49.9499 47.8818 51.1638C48.0187 51.7333 48.0534 52.2609 47.5203 52.6387C46.9892 53.0166 46.4927 52.8067 45.9998 52.5073C44.9502 51.8702 43.8805 51.266 42.84 50.6144C42.4512 50.3716 42.1574 50.326 41.7393 50.5943C40.6879 51.2697 39.589 51.8721 38.5194 52.5183C38.0228 52.8176 37.5227 53.0038 36.997 52.626C36.4567 52.239 36.5333 51.6859 36.6556 51.1364C36.9331 49.8934 37.1905 48.6466 37.5044 47.4145C37.6067 47.0129 37.5008 46.7902 37.2087 46.5401C36.2048 45.6822 35.2282 44.795 34.2279 43.9316C33.8098 43.5702 33.5853 43.1504 33.766 42.6082C33.9486 42.0606 34.3903 41.8927 34.9379 41.8489C36.2522 41.743 37.5628 41.5769 38.879 41.4838C39.2933 41.4546 39.4704 41.2793 39.6164 40.9289C40.1312 39.6913 40.6386 38.4482 41.2246 37.2434C41.4089 36.8656 41.8324 36.6045 42.2833 36.1537L42.2851 36.1573ZM45.2587 49.5082C45.0908 48.7269 45.0068 48.0479 44.795 47.4127C44.4829 46.4707 44.7403 45.7972 45.5197 45.2222C46.0509 44.8316 46.5182 44.3533 47.1188 43.8185C46.1823 43.7308 45.4376 43.6377 44.691 43.5976C43.9408 43.5574 43.4789 43.2106 43.2179 42.5042C42.955 41.7959 42.6228 41.1132 42.2705 40.3009C41.9456 41.0439 41.6189 41.6481 41.4162 42.2924C41.1169 43.2435 40.4889 43.6158 39.5361 43.6341C38.8771 43.6469 38.22 43.7509 37.4223 43.8258C38.1105 44.4336 38.6544 44.9502 39.2386 45.4175C39.8245 45.8866 40.0162 46.4178 39.8008 47.1553C39.5909 47.8708 39.4832 48.6156 39.297 49.5045C40.1293 49.0172 40.8102 48.6539 41.4546 48.2341C42.0241 47.8635 42.5407 47.8836 43.1047 48.2396C43.7728 48.6612 44.4665 49.0445 45.2587 49.5064V49.5082Z" fill="#1780B2"/>
<path d="M40.6126 23.8323C40.6017 26.9628 38.079 29.4563 34.9393 29.4399C31.8453 29.4235 29.3573 26.9154 29.3555 23.8122C29.3555 20.6744 31.8636 18.1663 34.9941 18.1736C38.1301 18.1809 40.6236 20.6926 40.6108 23.8341L40.6126 23.8323ZM38.4258 23.8049C38.4258 21.8937 36.9254 20.3787 35.016 20.3586C33.0811 20.3403 31.5423 21.8682 31.5405 23.8067C31.5405 25.7125 33.0519 27.2403 34.9485 27.2531C36.887 27.2659 38.424 25.7398 38.424 23.8049H38.4258Z" fill="#1780B2"/>
<path d="M20.1465 29.4379C17.0415 29.4343 14.4987 26.886 14.5078 23.7902C14.5188 20.6889 17.067 18.1589 20.172 18.168C23.2825 18.1771 25.8161 20.7144 25.8088 23.8157C25.8015 26.9153 23.2569 29.4416 20.1465 29.4379ZM20.1446 27.2511C22.0668 27.2566 23.6366 25.6941 23.6238 23.7847C23.611 21.8954 22.0722 20.3639 20.1757 20.3548C18.2554 20.3457 16.6837 21.9119 16.6965 23.8212C16.7093 25.7032 18.259 27.2438 20.1465 27.2493L20.1446 27.2511Z" fill="#1780B2"/>
<path d="M49.813 18.1681C52.9217 18.1717 55.4608 20.709 55.459 23.8085C55.4571 26.9081 52.9144 29.4399 49.8021 29.438C46.6971 29.438 44.1525 26.8953 44.1561 23.7994C44.1598 20.6981 46.7062 18.1644 49.8112 18.1681H49.813ZM49.8368 27.2512C51.7224 27.2403 53.2685 25.6905 53.2721 23.8085C53.2758 21.8937 51.7023 20.3385 49.7783 20.3567C47.8818 20.3732 46.3484 21.9101 46.3448 23.7994C46.3411 25.7088 47.9128 27.2622 49.8368 27.2512Z" fill="#1780B2"/>
</g>
<defs>
<clipPath id="clip0_0_556">
<rect width="70" height="60.9369" fill="white"/>
</clipPath>
</defs>
</svg>
    