<svg width="56" height="77" viewBox="0 0 56 77" fill="none" xmlns="http://www.w3.org/2000/svg">
<g clip-path="url(#clip0_0_567)">
<path d="M27.5475 76.3348C25.9842 75.8927 25.104 74.6302 24.152 73.4691C23.8314 73.0768 23.5387 72.9653 23.0249 73.0768C20.9119 73.5388 18.8906 72.107 18.5879 69.9562C18.5262 69.5161 18.4067 69.291 17.9267 69.1496C16.4431 68.7095 15.529 67.6879 15.296 66.1405C15.2243 65.6706 15.0909 65.4336 14.589 65.2922C12.9998 64.8401 12.2032 63.7289 11.8687 61.6319C10.2297 61.2555 9.03085 60.3294 8.74009 58.5929C8.62658 57.9178 8.76996 57.171 8.9253 56.4859C9.07864 55.8128 8.37765 54.594 7.68661 54.6179C6.67295 54.6518 5.94408 54.2137 5.31278 53.4629C3.82516 51.6964 2.30567 49.9559 0.806095 48.1994C-0.364886 46.8273 -0.257347 45.4174 1.11079 44.2304C2.23597 43.2526 3.35318 42.2649 4.51221 41.3289C4.97224 40.9585 5.09969 40.5542 5.0977 39.9906C5.08376 30.4515 5.0977 20.9144 5.07381 11.3752C5.07181 10.2023 5.42231 9.29218 6.27267 8.46572C8.78191 6.02418 11.2473 3.53485 13.7048 1.03954C14.4138 0.322617 15.2084 0 16.224 0C26.7808 0.0179232 37.3375 0.00995733 47.8943 0.0119488C49.9296 0.0119488 50.8994 0.979801 50.8994 3.02703C50.9014 15.8939 50.9054 28.7607 50.8875 41.6276C50.8875 42.243 51.0508 42.701 51.457 43.159C52.7276 44.5869 53.9643 46.0467 55.201 47.5064C56.35 48.8646 56.2564 50.2666 54.9242 51.4256C53.1059 53.0068 51.2698 54.5641 49.4397 56.1314C48.8004 56.6791 48.0695 56.8882 47.2271 56.7926C46.9961 56.7667 46.6895 56.8404 46.5142 56.9858C45.2715 58.0134 44.0528 59.0728 42.7902 60.1522C42.9037 60.3474 43.0092 60.5326 43.1168 60.7178C44.455 63.0299 43.1685 65.8777 40.5418 66.3596C40.028 66.4532 39.7711 66.6125 39.5939 67.1542C39.0343 68.8529 37.7279 69.6435 36.0092 69.7869C35.2146 72.0452 34.3922 72.7502 32.1179 73.1007C31.7953 74.8174 30.6821 75.831 29.0391 76.3329H27.5475V76.3348ZM48.2966 2.5889H16.5347C16.5347 2.89161 16.5347 3.15846 16.5347 3.42333C16.5347 5.21166 16.5446 7 16.5307 8.78834C16.5188 10.3954 15.4812 11.441 13.8721 11.4649C12.6314 11.4848 11.3887 11.4688 10.1461 11.4688C9.33554 11.4688 8.52302 11.4688 7.71449 11.4688V38.5408C8.04109 38.272 8.2721 38.0888 8.49713 37.8956C10.5523 36.1351 12.6055 34.3707 14.6627 32.6122C16.0308 31.4432 17.4508 31.5408 18.6357 32.907C20.199 34.7073 21.7424 36.5235 23.2937 38.3337C24.0226 39.1861 24.1939 40.13 23.7577 41.1755C23.7139 41.2791 23.698 41.3946 23.6621 41.538C24.4926 41.759 25.2892 41.9442 26.0678 42.1892C26.502 42.3246 26.8126 42.2449 27.1273 41.9263C27.9996 41.0461 29.0889 40.7235 30.3057 40.7016C31.0465 40.6896 31.7873 40.61 32.5859 40.5582C31.9188 38.969 32.5062 37.8558 33.7111 36.874C35.4237 35.478 37.0707 34.0023 38.7515 32.5664C40.0499 31.4572 41.5037 31.5587 42.6229 32.8393C43.5708 33.9246 44.4988 35.0239 45.4368 36.1172C46.3549 37.1866 47.273 38.2541 48.2966 39.445V2.5889ZM30.1205 49.3704C28.1788 51.0253 26.3227 52.6324 24.4388 54.2077C22.7361 55.6296 20.4141 55.4643 19.036 53.8592C17.636 52.2302 17.8471 49.8782 19.5358 48.4105C20.9239 47.2057 22.3239 46.0168 23.7179 44.8199C23.8772 44.6825 24.0246 44.5292 24.2357 44.33C23.3734 44.101 22.6146 43.858 21.8399 43.7146C21.5552 43.6609 21.1529 43.7505 20.9298 43.9297C19.7708 44.8657 18.6536 45.8515 17.5225 46.8213C15.0749 48.9223 12.6274 51.0233 10.1879 53.1164C10.5902 53.905 11.0263 54.367 12.038 54.144C12.6593 54.0065 13.436 54.1937 14.0454 54.4586C15.5071 55.0939 16.1244 56.3644 16.24 57.9218C18.319 58.3758 19.3785 59.7041 19.5418 61.7573C21.6089 62.2393 22.6744 63.5277 22.8237 65.573C25.7572 66.5767 26.49 67.9886 25.7074 71.0435C25.6695 71.1949 25.7452 71.4239 25.8488 71.5533C26.3327 72.1508 26.8306 72.7403 27.3523 73.3058C27.894 73.8933 28.597 73.9471 29.1407 73.4831C29.6803 73.023 29.7341 72.3081 29.2542 71.6848C28.9833 71.3303 28.6587 71.0137 28.4058 70.6492C28.0095 70.0797 28.1111 69.3986 28.6089 68.9704C29.0909 68.5582 29.8198 68.5661 30.3037 69.0262C30.6084 69.3169 30.8593 69.6615 31.1441 69.9701C31.7176 70.5895 32.4246 70.6691 32.9922 70.1872C33.5279 69.7292 33.5577 68.9565 33.0419 68.3252C32.57 67.7477 32.0701 67.196 31.5961 66.6205C31.0345 65.9374 31.0624 65.1966 31.6459 64.7087C32.2294 64.2208 32.9464 64.3203 33.5418 64.9915C34.0038 65.5112 34.4399 66.0529 34.9 66.5747C35.4755 67.2299 36.2402 67.3394 36.7978 66.8634C37.3734 66.3735 37.3893 65.6367 36.8158 64.9536C36.0988 64.0973 35.356 63.2609 34.6411 62.4026C34.0695 61.7155 34.0795 60.9787 34.6391 60.4828C35.2206 59.967 35.9794 60.0745 36.5887 60.7735C37.2897 61.5781 37.9768 62.3966 38.6738 63.2051C39.3549 63.9937 40.0459 64.1331 40.6633 63.6154C41.2727 63.1036 41.2547 62.3488 40.6035 61.5861C39.8468 60.6979 39.084 59.8137 38.3233 58.9294C35.6089 55.765 32.8926 52.6006 30.1225 49.3704H30.1205ZM47.6872 54.2754C49.6448 52.5966 51.5227 50.9875 53.4325 49.3505C49.117 44.3181 44.8613 39.3553 40.5757 34.3587C38.624 36.0336 36.7441 37.6467 34.8263 39.2916C39.1159 44.2882 43.3776 49.2569 47.6852 54.2754H47.6872ZM16.5327 34.3568C11.8368 38.3815 7.21463 42.3445 2.5546 46.3374C4.22942 48.289 5.84251 50.167 7.48746 52.0848C12.1634 48.074 16.8015 44.095 21.4536 40.1041C19.7848 38.1545 18.1896 36.2925 16.5327 34.3568ZM44.8971 54.9983C44.8095 54.8609 44.7757 54.7932 44.7299 54.7374C41.4658 50.9317 38.2038 47.122 34.9199 43.3323C34.7506 43.1351 34.3742 43.0216 34.0994 43.0296C33.0579 43.0595 32.0163 43.2307 30.9788 43.2088C29.8835 43.1849 29.053 43.5633 28.2425 44.2822C25.9424 46.3275 23.5785 48.301 21.2445 50.3084C20.4718 50.9735 20.3882 51.7841 21.0115 52.3556C21.5133 52.8156 22.1865 52.7957 22.8217 52.2541C24.8271 50.5494 26.8206 48.8307 28.82 47.1201C29.3677 46.6521 29.9034 46.1701 30.4749 45.734C30.9668 45.3596 31.5045 45.3875 31.9825 45.7798C32.4525 46.1681 32.6536 46.7018 32.335 47.2376C32.0621 47.6956 32.2394 47.9425 32.5182 48.2632C34.0616 50.0455 35.593 51.8398 37.1284 53.6302C38.4348 55.1516 39.7412 56.6711 41.0954 58.2484C42.3819 57.1491 43.6186 56.0896 44.8971 54.9963V54.9983ZM13.9498 4.80341C12.6115 6.12176 11.1757 7.5377 9.81947 8.87397H13.9498V4.80341ZM19.0101 66.7898C19.7151 66.7898 20.2707 66.2122 20.2528 65.5013C20.2348 64.8282 19.6772 64.2805 19.0121 64.2805C18.323 64.2805 17.7316 64.8899 17.7555 65.573C17.7794 66.2361 18.3509 66.7917 19.0121 66.7898H19.0101ZM22.306 70.6373C22.9751 70.6333 23.5247 70.0856 23.5387 69.4085C23.5526 68.6916 23.001 68.128 22.29 68.132C21.6209 68.136 21.0593 68.6836 21.0414 69.3508C21.0234 70.0339 21.6189 70.6393 22.306 70.6373ZM16.9609 61.7812C17.0067 61.0862 16.459 60.4768 15.76 60.4489C15.0988 60.423 14.5173 60.9468 14.4616 61.6159C14.4078 62.2731 14.9256 62.8745 15.5947 62.9303C16.3116 62.99 16.9151 62.4822 16.9629 61.7812H16.9609ZM13.6749 57.858C13.6769 57.1809 13.1472 56.6373 12.4621 56.6174C11.7552 56.5954 11.1677 57.1531 11.1637 57.8501C11.1597 58.5212 11.6974 59.0728 12.3785 59.0927C13.0914 59.1147 13.673 58.561 13.6749 57.858Z" fill="#1780B2"/>
<path d="M36.8652 15.2647C34.8539 15.2647 32.8425 15.2706 30.8311 15.2627C29.8453 15.2587 29.3096 14.8206 29.2877 14.0399C29.2658 13.2254 29.8274 12.7235 30.8271 12.7216C34.8738 12.7136 38.9224 12.7136 42.9691 12.7216C43.9489 12.7216 44.5503 13.2493 44.5264 14.0359C44.5025 14.8026 43.9449 15.2567 42.9731 15.2627C40.9378 15.2706 38.9005 15.2647 36.8652 15.2647Z" fill="#1780B2"/>
<path d="M36.8632 22.9198C38.9483 22.9198 41.0353 22.9079 43.1204 22.9278C44.148 22.9377 44.7574 23.7224 44.4507 24.5807C44.2157 25.2419 43.6939 25.4609 43.0467 25.4649C42.053 25.4689 41.0612 25.4669 40.0675 25.4669C37.0882 25.4669 34.109 25.4669 31.1278 25.4669C30.8549 25.4669 30.5781 25.4709 30.3133 25.4191C29.6342 25.2817 29.2399 24.746 29.2916 24.0749C29.3394 23.4456 29.7835 22.9676 30.4567 22.9457C31.6217 22.9079 32.7907 22.9258 33.9577 22.9218C34.9255 22.9198 35.8953 22.9218 36.8632 22.9218V22.9198Z" fill="#1780B2"/>
<path d="M28.6703 20.3648C27.2066 20.3648 25.7429 20.3907 24.2811 20.3568C23.2675 20.3329 22.6661 19.5084 22.9907 18.6581C23.2117 18.0786 23.6757 17.8237 24.2732 17.8217C27.1747 17.8157 30.0763 17.8077 32.9779 17.8277C33.8143 17.8336 34.348 18.3693 34.35 19.0882C34.35 19.8072 33.8203 20.3409 32.9858 20.3568C31.548 20.3847 30.1102 20.3648 28.6703 20.3648Z" fill="#1780B2"/>
<path d="M28.6671 28.0099C30.0811 28.0099 31.495 28.002 32.909 28.0139C33.7892 28.0219 34.3548 28.5297 34.3528 29.2705C34.3528 30.0113 33.7832 30.5431 32.909 30.5471C30.0572 30.561 27.2034 30.561 24.3516 30.5471C23.4714 30.5431 22.9218 30.0233 22.9198 29.2705C22.9198 28.4978 23.4415 28.0219 24.3496 28.0139C25.7875 28.002 27.2273 28.0099 28.6651 28.0099H28.6671Z" fill="#1780B2"/>
<path d="M13.9032 27.2792C14.8491 26.0186 15.7851 24.7739 16.7171 23.5272C17.1433 22.9577 17.6989 22.7625 18.3481 23.0453C18.9456 23.3062 19.1646 23.8279 19.0372 24.4553C18.9894 24.6863 18.85 24.9133 18.7066 25.1085C17.5256 26.6996 16.3427 28.2888 15.1439 29.8681C14.4867 30.7324 13.7339 30.7702 12.9433 30.0075C12.6047 29.6809 12.2702 29.3483 11.9475 29.0058C11.376 28.3984 11.3182 27.7611 11.7743 27.2095C12.2343 26.6518 12.9134 26.61 13.6224 27.0999C13.702 27.1557 13.7857 27.2055 13.9032 27.2811V27.2792Z" fill="#1780B2"/>
<path d="M13.8974 17.1087C14.8393 15.8541 15.7315 14.6612 16.6296 13.4743C17.2131 12.7036 17.9082 12.5243 18.5415 12.9724C19.1966 13.4344 19.2504 14.1992 18.6609 14.9957C17.5059 16.5511 16.3489 18.1044 15.1759 19.6458C14.4848 20.5539 13.736 20.5957 12.9235 19.8051C12.6029 19.4925 12.2863 19.1778 11.9756 18.8552C11.3662 18.2179 11.3085 17.5568 11.8023 17.0011C12.2763 16.4674 12.9076 16.4336 13.6066 16.9036C13.6863 16.9573 13.7639 17.0151 13.8974 17.1127V17.1087Z" fill="#1780B2"/>
<path d="M24.7702 15.2645C24.6467 15.2645 24.5233 15.2665 24.3998 15.2645C23.4439 15.2386 22.9082 14.7706 22.9221 13.978C22.9341 13.2272 23.4758 12.7532 24.3719 12.7234C24.7423 12.7114 25.1167 12.6995 25.4852 12.7373C26.2559 12.815 26.7298 13.3487 26.7 14.0636C26.6701 14.7507 26.1981 15.2047 25.4394 15.2585C25.2183 15.2744 24.9933 15.2605 24.7722 15.2605C24.7722 15.2625 24.7722 15.2645 24.7722 15.2665L24.7702 15.2645Z" fill="#1780B2"/>
<path d="M24.818 22.9238C25.0151 22.9238 25.2143 22.9139 25.4114 22.9258C26.204 22.9756 26.6939 23.4515 26.6999 24.1685C26.7059 24.8814 26.2219 25.3892 25.4373 25.453C25.0191 25.4868 24.5949 25.4868 24.1767 25.453C23.4 25.3873 22.9101 24.8635 22.9221 24.1585C22.934 23.4456 23.4279 22.9756 24.2245 22.9258C24.4217 22.9139 24.6208 22.9258 24.818 22.9258V22.9238Z" fill="#1780B2"/>
</g>
<defs>
<clipPath id="clip0_0_567">
<rect width="56" height="76.3348" fill="white"/>
</clipPath>
</defs>
</svg>
