<svg width="70" height="70" viewBox="0 0 70 70" fill="none" xmlns="http://www.w3.org/2000/svg">
<g clip-path="url(#clip0_0_543)">
<path d="M69.1358 55.3128C70.2704 56.9732 70.2704 58.17 69.1754 59.787C70.2666 61.8978 70.2666 62.565 69.1565 64.3743C69.8671 65.3053 70.1912 66.3419 69.852 67.5254C69.46 68.8956 68.2444 69.9661 66.8233 69.9736C61.109 70.0075 55.3948 69.9943 49.6824 69.9849C49.4355 69.9849 49.181 69.8813 48.9436 69.7889C47.8938 69.3799 46.8026 69.0426 45.8132 68.5186C44.1905 67.6574 42.4848 67.6687 40.6661 67.7723V69.951H15.8207V51.0102C12.1908 52.4161 8.72307 52.254 5.4268 50.2714C3.19536 48.9295 1.62356 47.0072 0.711382 44.5665C-1.10731 39.6947 0.651072 34.2292 4.9594 31.3023C9.29035 28.3603 14.9933 28.7863 18.9021 32.3106C22.3868 35.4523 24.3186 41.6208 20.3816 47.3841H40.6209V49.6476C42.2474 49.6607 43.7645 49.8737 45.2044 48.8692C46.682 47.8383 48.3367 47.0637 49.8916 46.1421C53.4649 44.0256 55.2741 40.882 55.3099 36.7226C55.3156 36.1591 55.3005 35.5937 55.3137 35.0301C55.3457 33.6845 56.322 32.7384 57.662 32.7422C60.5625 32.7516 63.0785 35.1545 63.1991 38.0776C63.3537 41.8394 62.3623 45.2789 60.2289 48.3886C60.0461 48.6543 59.9952 49.0105 59.8821 49.3234C60.2119 49.4402 60.5399 49.6513 60.8735 49.6589C62.5885 49.6928 64.3073 49.7097 66.0223 49.6645C67.5282 49.6231 68.7758 50.0509 69.5391 51.4116C70.3005 52.7704 70.0838 54.0784 69.1358 55.3128ZM40.6888 51.9318V65.6012C43.8211 64.8605 46.4068 66.3645 49.0962 67.4274C49.2715 67.4972 49.4449 67.5725 49.6239 67.6234C49.8011 67.6743 49.9858 67.7327 50.1686 67.7327C55.5983 67.7384 61.028 67.7403 66.4577 67.7327C67.2285 67.7327 67.7223 67.2691 67.7223 66.6076C67.7223 65.9461 67.2304 65.4881 66.4577 65.4825C64.8595 65.4712 63.2613 65.4806 61.6631 65.4768C61.4389 65.4768 61.2127 65.4561 60.9922 65.4467V63.2209C61.2542 63.2209 61.4841 63.2209 61.7121 63.2209C63.2632 63.2209 64.8143 63.2265 66.3672 63.219C67.204 63.2152 67.711 62.793 67.7242 62.1146C67.7393 61.4116 67.2153 60.9725 66.3409 60.9649C65.4946 60.9593 64.6484 60.9649 63.8022 60.9649C62.8712 60.9649 61.9383 60.9649 61.011 60.9649V58.7071C61.2259 58.7071 61.388 58.7071 61.55 58.7071C63.2199 58.7071 64.8878 58.7184 66.5576 58.6996C67.2662 58.6901 67.7412 58.1907 67.7261 57.5518C67.711 56.9412 67.2511 56.4964 66.5745 56.4549C66.3164 56.4399 66.0582 56.4512 65.7981 56.4512C64.2055 56.4512 62.6149 56.4512 61.0016 56.4512V54.1934C61.2994 54.1934 61.5538 54.1934 61.8083 54.1934C63.3838 54.1934 64.9575 54.2047 66.5331 54.1858C67.2511 54.1764 67.7261 53.6977 67.7223 53.0588C67.7185 52.4199 67.2436 51.9732 66.5237 51.9374C66.3352 51.928 66.1467 51.9355 65.9602 51.9355C64.1038 51.9355 62.2455 51.9506 60.3891 51.9299C58.9813 51.9148 57.8486 50.948 57.6092 49.5891C57.4472 48.6694 57.7883 47.8967 58.3122 47.1598C60.1856 44.5232 61.0393 41.5718 60.9526 38.3453C60.9017 36.4757 59.4185 35.0056 57.5696 35.0509C57.5696 35.5616 57.5696 36.0742 57.5696 36.5888C57.5508 41.7339 55.3118 45.6012 50.8753 48.1907C48.8475 49.3743 46.8045 50.5315 44.7559 51.6792C44.4845 51.83 44.1452 51.9186 43.8343 51.928C42.8034 51.9581 41.7706 51.9393 40.6906 51.9393L40.6888 51.9318ZM33.8154 67.7064V49.7305H18.1011V67.7064H33.8154ZM7.41323 43.6223C5.07248 40.8387 5.05364 37.6762 7.40569 35.4278C9.54478 33.3848 12.8976 33.3471 15.0819 35.3411C17.5207 37.5669 17.5357 40.7105 15.1724 43.6204C16.2353 44.4497 17.2983 45.2789 18.3706 46.1138C20.685 43.6543 21.5256 38.1191 17.6526 34.2442C14.0472 30.637 8.18782 30.7501 4.71817 34.461C0.984657 38.4546 2.05703 43.9238 4.21685 46.1063C5.27603 45.2827 6.32578 44.4666 7.41511 43.6185L7.41323 43.6223ZM36.1731 49.706V67.68H38.3442V49.706H36.1731ZM11.3088 42.8986C13.1501 42.8892 14.6673 41.372 14.6729 39.5288C14.6805 37.6555 13.1426 36.1195 11.2692 36.1289C9.42604 36.1383 7.91266 37.6536 7.90512 39.4968C7.89759 41.3701 9.43547 42.908 11.3088 42.8986ZM16.6104 47.8439C13.9888 44.0916 8.16521 44.4516 5.97523 47.8816C8.9643 50.2789 13.9549 50.2601 16.6104 47.8439Z" fill="#1780B2"/>
<path d="M29.3611 31.6095C20.6596 31.6152 13.5582 24.5288 13.5469 15.833C13.5375 7.09575 20.6389 -0.0112945 29.3743 1.34753e-05C38.0739 0.0113214 45.1564 7.10706 45.1526 15.8104C45.1489 24.5119 38.0588 31.6057 29.3611 31.6114V31.6095ZM40.6954 23.0645C43.8937 18.53 43.9314 10.9122 38.5507 5.86696C33.5017 1.13269 25.4636 1.05919 20.3166 5.71807C14.8341 10.6804 14.7211 18.3547 18.0211 23.104C19.4855 20.0038 21.813 17.8327 25.0773 16.5435C23.5488 15.2036 22.6894 13.5997 22.5914 11.6547C22.4915 9.67774 23.1474 7.95704 24.5382 6.53978C26.9393 4.09538 30.7689 3.83152 33.4678 5.92161C34.7795 6.93933 35.637 8.26424 35.9687 9.8907C36.5058 12.5349 35.6068 14.723 33.6694 16.5454C37.2522 18.1813 38.3226 19.1802 40.6954 23.0626V23.0645ZM22.3878 20.8462C21.2099 21.9337 20.4655 23.1606 19.885 24.5138C19.6513 25.0566 19.7663 25.3883 20.1866 25.7765C24.9397 30.1715 32.271 30.588 37.4218 26.6434C39.4365 25.0999 39.378 25.5918 38.1379 23.1851C37.7045 22.3408 37.0241 21.6227 36.3513 20.7011C35.7105 23.2435 35.1357 25.5221 34.5401 27.8817C32.7459 26.5379 31.0592 25.2733 29.3535 23.9955C27.6197 25.2921 25.9197 26.5624 24.1557 27.8817C23.5563 25.4976 22.9853 23.2228 22.3897 20.8462H22.3878ZM29.3196 6.77536C26.8338 6.78856 24.8172 8.83906 24.8379 11.3362C24.8568 13.7919 26.8846 15.801 29.346 15.8029C31.8338 15.8048 33.8692 13.7656 33.8635 11.2759C33.8579 8.78629 31.813 6.76217 29.3196 6.77536ZM24.8605 18.9578C24.6721 19.2593 24.4063 19.4949 24.4421 19.6608C24.7625 21.095 25.1395 22.516 25.522 24.0388C26.3023 23.4546 26.9977 22.9325 27.7196 22.3898C26.7716 21.2514 25.8858 20.1904 24.8586 18.9578H24.8605ZM33.1775 24.037C33.5639 22.5028 33.9295 21.1007 34.2593 19.689C34.2914 19.5534 34.1368 19.3102 34.0011 19.2198C33.9088 19.1595 33.6336 19.2254 33.5469 19.3272C32.6913 20.3223 31.8601 21.3362 30.9819 22.3916C31.7075 22.9363 32.3992 23.4527 33.1794 24.037H33.1775ZM29.3517 20.818C30.0716 19.951 30.7199 19.1689 31.5171 18.2077H27.1881C27.9928 19.1802 28.643 19.9623 29.3517 20.818Z" fill="#1780B2"/>
<path d="M58.7162 30.4806C52.4799 30.4881 47.4045 25.4108 47.4102 19.1745C47.4158 12.9702 52.4742 7.90989 58.6785 7.90235C64.9168 7.89481 69.9921 12.9702 69.9846 19.2065C69.9789 25.4071 64.9149 30.4749 58.7162 30.4806ZM54.8282 22.1711C52.0728 19.3328 52.9058 15.8914 54.6774 14.1048C56.7675 11.9977 60.1015 11.8432 62.3498 13.7674C63.4901 14.7418 64.1535 15.9932 64.3061 17.4764C64.5002 19.346 63.8123 20.914 62.5628 22.1598C63.6578 23.0135 64.7189 23.8409 65.7856 24.672C68.3374 21.8206 68.7765 16.1044 64.6774 12.4406C60.8742 9.0388 54.9507 9.50431 51.7298 13.4564C49.0027 16.8017 49.0008 22.7252 51.6224 24.6513C52.7004 23.8164 53.752 23.0041 54.8263 22.173L54.8282 22.1711ZM62.0803 18.1549C62.1237 16.3042 60.6593 14.7399 58.8274 14.6777C56.9484 14.6155 55.3578 16.1044 55.3144 17.9664C55.2711 19.8454 56.7713 21.4172 58.639 21.4455C60.484 21.4738 62.037 19.9887 62.0822 18.1549H62.0803ZM53.3431 26.372C56.5941 29.052 61.6243 28.5827 64.0215 26.3456C61.4283 22.8307 56.0626 22.8251 53.3431 26.372Z" fill="#1780B2"/>
<path d="M24.875 38.417H47.359V40.5994H24.875V38.417Z" fill="#1780B2"/>
<path d="M24.8672 45.1112V42.9363H45.0952V45.1112H24.8672Z" fill="#1780B2"/>
<path d="M29.3809 36.0762V33.907H47.3775V36.0762H29.3809Z" fill="#1780B2"/>
<path d="M27.0595 33.9087V36.0742H24.8809V33.9087H27.0595Z" fill="#1780B2"/>
<path d="M22.5439 63.2625V65.4298H20.3652V63.2625H22.5439Z" fill="#1780B2"/>
<path d="M27.0613 63.2605V65.4316H24.8789V63.2605H27.0613Z" fill="#1780B2"/>
<path d="M31.5737 63.2699V65.4448H29.4026V63.2699H31.5737Z" fill="#1780B2"/>
</g>
<defs>
<clipPath id="clip0_0_543">
<rect width="70" height="69.9981" fill="white"/>
</clipPath>
</defs>
</svg>
